<mxfile host="app.diagrams.net" modified="2024-06-25T12:41:09.796Z" agent="Mozilla/5.0 (Macintosh; Intel Mac OS X 10_15_7) AppleWebKit/537.36 (KHTML, like Gecko) Chrome/126.0.0.0 Safari/537.36" etag="lEPOjcS4KxlwE8M2Ggvd" version="24.6.2" type="device">
  <diagram id="d1ab7348-05c3-a1e3-ca4d-12c340fd6b49" name="Page-1">
    <mxGraphModel dx="996" dy="511" grid="1" gridSize="10" guides="1" tooltips="1" connect="1" arrows="1" fold="1" page="1" pageScale="1" pageWidth="1169" pageHeight="827" background="none" math="0" shadow="0">
      <root>
        <mxCell id="0" />
        <mxCell id="1" parent="0" />
        <mxCell id="3ZfG_3-aHI2Txs_DAWEP-415" value="&lt;b&gt;ICP&lt;/b&gt;" style="fillColor=#F6F6F6;strokeColor=none;shadow=0;gradientColor=none;fontSize=14;align=left;spacing=10;fontColor=#717171;9E9E9E;verticalAlign=top;spacingTop=-4;fontStyle=0;spacingLeft=40;html=1;container=0;movable=1;resizable=1;rotatable=1;deletable=1;editable=1;locked=0;connectable=1;" parent="1" vertex="1">
          <mxGeometry x="430" y="150" width="360" height="410" as="geometry" />
        </mxCell>
        <mxCell id="3ZfG_3-aHI2Txs_DAWEP-420" style="edgeStyle=orthogonalEdgeStyle;rounded=0;html=1;labelBackgroundColor=none;startFill=1;startSize=4;endArrow=blockThin;endFill=1;endSize=4;jettySize=auto;orthogonalLoop=1;strokeColor=#4284F3;strokeWidth=2;fontSize=12;fontColor=#000000;align=center;dashed=0;" parent="1" source="3ZfG_3-aHI2Txs_DAWEP-421" target="3ZfG_3-aHI2Txs_DAWEP-519" edge="1">
          <mxGeometry relative="1" as="geometry" />
        </mxCell>
        <mxCell id="3ZfG_3-aHI2Txs_DAWEP-421" value="Development&lt;br&gt;Team&lt;br&gt;" style="rounded=1;absoluteArcSize=1;arcSize=2;html=1;strokeColor=none;gradientColor=none;shadow=0;dashed=0;strokeColor=none;fontSize=12;fontColor=#9E9E9E;align=left;verticalAlign=top;spacing=10;spacingTop=-4;fillColor=#F3E5F5;" parent="1" vertex="1">
          <mxGeometry x="262.5" y="307" width="90" height="120" as="geometry" />
        </mxCell>
        <mxCell id="3ZfG_3-aHI2Txs_DAWEP-422" value="" style="strokeColor=#dddddd;fillColor=#ffffff;shadow=1;strokeWidth=1;rounded=1;absoluteArcSize=1;arcSize=2;labelPosition=center;verticalLabelPosition=middle;align=center;verticalAlign=bottom;spacingLeft=0;fontColor=#999999;fontSize=12;whiteSpace=wrap;spacingBottom=2;html=1;" parent="1" vertex="1">
          <mxGeometry x="272.5" y="347" width="70" height="70" as="geometry" />
        </mxCell>
        <mxCell id="3ZfG_3-aHI2Txs_DAWEP-423" value="" style="dashed=0;connectable=0;html=1;fillColor=#757575;strokeColor=none;shape=mxgraph.gcp2.laptop;part=1;" parent="3ZfG_3-aHI2Txs_DAWEP-422" vertex="1">
          <mxGeometry x="0.5" width="50" height="33" relative="1" as="geometry">
            <mxPoint x="-25" y="18.5" as="offset" />
          </mxGeometry>
        </mxCell>
        <mxCell id="3ZfG_3-aHI2Txs_DAWEP-452" value="1" style="shape=ellipse;fillColor=#ffffff;strokeColor=#BDBDBD;strokeWidth=2;shadow=0;gradientColor=none;fontColor=#757575;align=center;html=1;fontStyle=1;spacingTop=-1;" parent="1" vertex="1">
          <mxGeometry x="297.5" y="278" width="20" height="20" as="geometry" />
        </mxCell>
        <mxCell id="3ZfG_3-aHI2Txs_DAWEP-458" value="" style="fillColor=#ffffff;strokeColor=#BDBDBD;strokeWidth=1;shadow=0;gradientColor=none;fontSize=10;fontColor=#9E9E9E;align=center;html=1;" parent="1" vertex="1">
          <mxGeometry x="285" y="590" width="600" height="70" as="geometry" />
        </mxCell>
        <mxCell id="3ZfG_3-aHI2Txs_DAWEP-459" value="1 Commit code from local" style="strokeColor=none;fillColor=none;fontColor=#757575;align=left;html=1;fontStyle=0;spacingLeft=5;fontSize=11;verticalAlign=top;whiteSpace=wrap;spacingRight=5;" parent="3ZfG_3-aHI2Txs_DAWEP-458" vertex="1">
          <mxGeometry width="200" height="30" relative="1" as="geometry" />
        </mxCell>
        <mxCell id="3ZfG_3-aHI2Txs_DAWEP-460" value="2 Deploy canisters via GitHub CI/CD" style="strokeColor=none;fillColor=none;fontColor=#757575;align=left;html=1;fontStyle=0;spacingLeft=5;fontSize=11;verticalAlign=top;whiteSpace=wrap;spacingRight=5;" parent="3ZfG_3-aHI2Txs_DAWEP-458" vertex="1">
          <mxGeometry width="200" height="30" relative="1" as="geometry">
            <mxPoint y="30" as="offset" />
          </mxGeometry>
        </mxCell>
        <mxCell id="3ZfG_3-aHI2Txs_DAWEP-461" value="3 Create transaction on VM Product Selection" style="strokeColor=none;fillColor=none;fontColor=#757575;align=left;html=1;fontStyle=0;spacingLeft=5;fontSize=11;verticalAlign=top;whiteSpace=wrap;spacingRight=5;" parent="3ZfG_3-aHI2Txs_DAWEP-458" vertex="1">
          <mxGeometry width="200" height="30" relative="1" as="geometry">
            <mxPoint x="201" as="offset" />
          </mxGeometry>
        </mxCell>
        <mxCell id="3ZfG_3-aHI2Txs_DAWEP-462" value="4 Webhook channel creation for communication" style="strokeColor=none;fillColor=none;fontColor=#757575;align=left;html=1;fontStyle=0;spacingLeft=5;fontSize=11;verticalAlign=top;whiteSpace=wrap;spacingRight=5;" parent="3ZfG_3-aHI2Txs_DAWEP-458" vertex="1">
          <mxGeometry width="200" height="30" relative="1" as="geometry">
            <mxPoint x="200" y="30" as="offset" />
          </mxGeometry>
        </mxCell>
        <mxCell id="3ZfG_3-aHI2Txs_DAWEP-463" value="5 On transaction confirmation, send message to POS to dispense product" style="strokeColor=none;fillColor=none;fontColor=#757575;align=left;html=1;fontStyle=0;spacingLeft=5;fontSize=11;verticalAlign=top;whiteSpace=wrap;spacingRight=5;" parent="3ZfG_3-aHI2Txs_DAWEP-458" vertex="1">
          <mxGeometry width="200" height="30" relative="1" as="geometry">
            <mxPoint x="400" as="offset" />
          </mxGeometry>
        </mxCell>
        <mxCell id="3ZfG_3-aHI2Txs_DAWEP-464" value="6 Close channel after sending POS signal" style="strokeColor=none;fillColor=none;fontColor=#757575;align=left;html=1;fontStyle=0;spacingLeft=5;fontSize=11;verticalAlign=top;whiteSpace=wrap;spacingRight=5;" parent="3ZfG_3-aHI2Txs_DAWEP-458" vertex="1">
          <mxGeometry width="200" height="30" relative="1" as="geometry">
            <mxPoint x="400" y="30" as="offset" />
          </mxGeometry>
        </mxCell>
        <mxCell id="3ZfG_3-aHI2Txs_DAWEP-525" value="" style="shape=mxgraph.gcp2.doubleRect;strokeColor=#dddddd;shadow=1;strokeWidth=1;rounded=1;absoluteArcSize=1;arcSize=2;" parent="1" vertex="1">
          <mxGeometry x="516.25" y="279" width="187.5" height="68" as="geometry" />
        </mxCell>
        <mxCell id="3ZfG_3-aHI2Txs_DAWEP-526" value="&lt;font color=&quot;#000000&quot;&gt;openWebhook&lt;/font&gt;&lt;br&gt;Canister" style="editableCssRules=.*;html=1;fontColor=#999999;shape=image;verticalLabelPosition=middle;verticalAlign=middle;labelPosition=right;align=left;spacingLeft=20;part=1;points=[];imageAspect=0;image=data:image/svg+xml,PHN2ZyB4bWxucz0iaHR0cDovL3d3dy53My5vcmcvMjAwMC9zdmciIHhtbG5zOnY9Imh0dHBzOi8vdmVjdGEuaW8vbmFubyIgd2lkdGg9IjIwIiBoZWlnaHQ9IjIwIiB2aWV3Qm94PSIwIDAgMjAgMjAiPiYjeGE7CTxzdHlsZSB0eXBlPSJ0ZXh0L2NzcyI+JiN4YTsJLnN0MHtmaWxsOiM0Mjg1ZjQ7fSYjeGE7CS5zdDF7ZmlsbDojNjY5ZGY2O30mI3hhOwkuc3Qye2ZpbGw6I2FlY2JmYTt9JiN4YTsJPC9zdHlsZT4mI3hhOwk8cGF0aCBjbGFzcz0ic3QyIiBkPSJNNyA3aDZ2Nkg3eiIvPiYjeGE7CTxwYXRoIGNsYXNzPSJzdDEiIGQ9Ik05IDBoMnY0SDl6TTUgMGgydjRINXptOCAwaDJ2NGgtMnoiLz4mI3hhOwk8cGF0aCBjbGFzcz0ic3QwIiBkPSJNOSAxNmgydjRIOXptLTQgMGgydjRINXptOCAwaDJ2NGgtMnptMy01VjloNHYyem0wIDR2LTJoNHYyem0wLThWNWg0djJ6Ii8+JiN4YTsJPHBhdGggY2xhc3M9InN0MSIgZD0iTTAgMTFWOWg0djJ6bTAgNHYtMmg0djJ6bTAtOFY1aDR2MnoiLz4mI3hhOwk8cGF0aCBjbGFzcz0ic3QyIiBkPSJNMyAzdjE0aDE0VjN6bTEyIDEySDVWNWgxMHoiLz4mI3hhOwk8cGF0aCBjbGFzcz0ic3QxIiBkPSJNMTAgMTBsLTMgM2g2eiIvPiYjeGE7CTxwYXRoIGNsYXNzPSJzdDAiIGQ9Ik0xMyA3bC0zIDMgMyAzeiIvPiYjeGE7PC9zdmc+;" parent="3ZfG_3-aHI2Txs_DAWEP-525" vertex="1">
          <mxGeometry width="30" height="30" relative="1" as="geometry">
            <mxPoint x="15" y="15" as="offset" />
          </mxGeometry>
        </mxCell>
        <mxCell id="85rn0K34BXD19M59qSJw-22" value="2" style="shape=ellipse;fillColor=#ffffff;strokeColor=#BDBDBD;strokeWidth=2;shadow=0;gradientColor=none;fontColor=#757575;align=center;html=1;fontStyle=1;spacingTop=-1;movable=1;resizable=1;rotatable=1;deletable=1;editable=1;locked=0;connectable=1;" vertex="1" parent="3ZfG_3-aHI2Txs_DAWEP-525">
          <mxGeometry x="43.75" y="-36.5" width="20" height="20" as="geometry" />
        </mxCell>
        <mxCell id="3ZfG_3-aHI2Txs_DAWEP-519" value="" style="strokeColor=#dddddd;shadow=1;strokeWidth=1;rounded=1;absoluteArcSize=1;arcSize=2;" parent="1" vertex="1">
          <mxGeometry x="222.5" y="200" width="170" height="60" as="geometry" />
        </mxCell>
        <mxCell id="3ZfG_3-aHI2Txs_DAWEP-520" value="&lt;font color=&quot;#000000&quot;&gt;icp_payments_api&lt;/font&gt;&lt;br&gt;GitHub repository" style="editableCssRules=.*;html=1;fontColor=#999999;shape=image;verticalLabelPosition=middle;verticalAlign=middle;labelPosition=right;align=left;spacingLeft=20;part=1;points=[];imageAspect=0;image=data:image/png,iVBORw0KGgoAAAANSUhEUgAAAjAAAAIwCAMAAACvL6FdAAAC/VBMVEX////8/Pzp6enW1tbAwMCtrKyamZmLiop8e3ttbGxfXV1QT09EQ0NAPj4zMTEsKiolIyMdGxsXFRUtKytFRESbmprX19fq6urx8fHS0tKysbGWlZV7enpiYGBHRkYYFhZIR0fy8vL7+/vd3d22traPjo5raWlJR0cpJydLSUlsamrv7u7DwsJqaWkcGhqXlpbw7+/19fXHxsaUk5NjYWEyMTGVlJTIx8fn5+evrq53dXVCQEAaGBhDQUF4d3epqalvbm43NTVxcHCqqqro6Oi7uro+PDw/PT19fHy8u7vh4eGcm5tXVVUcGxtYVladnJzi4uL+/v7Ozc2DgoI8Ozs9PDzQz8/9/f16eXkxMDDNzc0uLCx+fX3Pzs7c3NyIh4c2NDSko6NNS0sfHR3w8PDT09NubW1wb2/U1NS0tLRPTk61tbX09PSYl5c0MjKZmJjr6+uGhYUmJCQmJSWHhobs7Ozk4+N2dHQeHBze3t4bGRlycXEhHx+lpKS+vr7g4OBgXl729vYwLy/j4+NbWlpdXFwgHh5EQkL5+fnMzMw6OTk7Ojr6+voZFxcqKCi9vLz6+flKSEgnJiYoJiaJiIhZV1ezs7OOjY34+PhpaGjb2trc29vIyMizsrKKiYl5eHj39/dSUVFhX1+4t7e5uLjKysrLy8s6ODhRUFC/v7/z8/NjYmJVU1OQj4+RkJAjISG9vb3m5uZUUlIrKSmVlZVGRUV/fn5mZWXEw8Nta2usq6vJycmFhIRlZGSBf3/a2dk5NzdeXV04NjZOTEyEg4OMi4toZ2dZWFjt7e0vLS3Y2Nh1dHQiICCAf3+SkZGjoqK6ubnGxcXf39+TkpKBgIC3t7fS0dHl5OTBwcGnpqbu7u6op6c1MzOioaEkIiLZ2NhzcnJcW1vCwsKhoKDFxMRBPz9OTU3m5eXV1dV0c3OenZ0wLi6mpaV3dnagoKBTUlJWVFSpqKiCgYGNjIyfn5+rq6uxsLBkY2Ofnp5nZmZaWVmwr6/R0NBMSkqura1uBeqMAAAYhElEQVR4AezBtQHCAAAAsLo77vL/kUxM6N4kwVsAAAAAAAAAAAAAAAAAAAAAAAAAAAAAAAAAAAAAAAAAAAAAAAAAAAAAAGEUJ2mWF2VVN23XD+P0NA6Lrl3WVVnkqzRZb8Jgxtju9ofj6dxfpn9dFtdTcdjvbsGccH+wSw9ocoVBAAB7bXWcfFibY6xt27Zt27xvjjB6+NF1hkpKTklNS0fvpWdkpiQn+QERXVb2v5yoXFRGXFRqXnY+EDEVGIwmMyov2mSxFgARis3ucBaiegqLiu3+QIRgKyktQy2UlVdUAtdIQVVoNWqpprauAPhE6hsam1B7cc0trcAZ0tbe0Yn66erobgNekB5rbx/qrS/U2gMcIP21A8iGgcEhYBsZHhlFlpSNJAGrSMJYBrJnfCwBGESsORPIpolUK7CFTAZ3Isu6GiaBGWRqegJZNzEzCywgfnPzyIeIhR7QGVlcikZ+LK8sgo7I6to68mVjcwt0QrZ3dpE/u45t0AHZC9tHPuXO7IHmqEsh8qswbA80RLbLC5FvhQfboBGyGtqE/NsN3QINkIKQQxTDYUgBEJX5jQ2gOAaOeoCo6bgGxRIVCEQ1J+EontN6IKoo2IxDEcVtnoHyyMI5iuo8GRRGLi5RZFcXoCCSaJxAsV1bEkEpZKoIxXczBYogt2uFKIP9tVvwHbm7R1k83IGPyOPaE8qjcPMRfEF+OlEuRT/Ba6TtXxPKJu5fG3iH+DeijBp/gTdI3TPK6fkFPEZea1Feg4/gGbL9hjJ72wZPkJd3lNvHC7iN+G0i+ewB95D8LySIX/ngDvKzDKX3n/16VrQrCoMAPHFSnoltNTGqqE4Vq4m7sIp5bdv2Kx7bZ+91tdd8z/BjJuzWDkhhHT8YIT86UIDc6WSCHL8Dyaerm8mkuwuS286TTCWndyIX6XlPSfe+F5JdXwslU0sfJJs9Pko2vn5Ipu0HKdkdvA1JN8DcZBNSyKPrzEcG7yBB6rqZn3QfQYw0lbMQKW9ChPwtZ2FSPoQQ+TvMYsjwX4jmRROjedHErJB5keEu9aOiibrSmhGWRvavgb3ubKGUassdWGsfpXT7YKtNFCc2wU4vKM68gI1G6ynO1I/BPuOvKE69moBtvrZSnGv9Crucm6QbUnMONmmaojsy1QSLvKVbchP22Ev3ZC9sMV1P96R+Gnb4+pliwuevsMHMfYoZ92fgfXcuUUyZvQPPO0sx5yy87uo3ijnfrsLb1m6lmPRsLbzs0RzFrLlH8LB5imkL8K7xAHnXoC1XEARP7OTZto9i27ixbdvmUWzb9rNt2/iPmG81O7W407sf0D23toaNAsQb3zi+tZGOvrs+ZXXb0e8/EPijP7wc3XbtlOvvjkqtznw8Aai4PaIbop4N4Lvi/7OQ1zyr/uIq9X367PV/r0Oke8VssoHrUATkMAVz7g7hF0RMZQl3cFf4lgOIxVCifIlAQOmh9GzX4uZAP6HY4jcwsoXSD5mLWI2gqYBkhmASpbIX0YjQXYKwZVf0CJXCWTGIYTOK6kozO0Fgx6oxbdc2TgC6xLW1U/MNqyDbnQjerTdCiEzXEKBqHX9K3qkI8c80hH0SIPsbyfHFEysSmKrRgeS0S7570R1J4/hHY2UEntQ2pEQMcpaQyfYkM1nSxWzqJobRh2FOEmdS25Cg3/kWTF6WvfaT3y3aexnT2D3AtDJam5J0AkPDh9XRuivyWmXeJK9jHXoK5umERIkwqSDug9hdpX2Wz1lmwug09oHvB52lEuJLHxT5g1o9+AyWR9DAtYNWzyMLUH99yPBlWTcQinQtHWbIQZZ2vLYSnyhK3ZZRIUwmgAJnsGQEWIprZgaeheIeaD1mONk5kwhfZsC6NpM41At6ZrE/kxyxmhicnZPbJy9/ecGmZX9T8Z8v23RweX5en9zCmIBLn2azH45O5HAUsraF98AZNJ5g3ODVnau5xbtQjXU9vqFF44pLtrMfqEuKxxWF+m7VmMxfyiVIB+PkRuIxZj9+HFjH57lMlWL6qSfOUeWRFdyfVBFZGeX8RFUwouotn1U7Eq2p8Kyp0zAMVdyixlEKNQpvEgdWT9FNP+3DUxYPTKxRSI4q4rbeA0bqNIFcqnn4vOnI772V7z9b/Mi9izNm6nrDrd1fN+qftcZqFb+tehyqeeIHHUNwFLYB/lv0/HFUDVlysUx/daXPG9ol/vhO89eIDNZUHKoQ4YOQh4zeNNKzk8vUt/oXdThcNtV3yXXIRKMOsDokOF+adPEEZiptLd7qAqwmsSvvrXSBwXUTIUysLsDqLHR9voNOHtlNRfLlsE7QchAYAQ+d5NrWmAhfvrJ3181xXUsQwDtg5jazLSvMDOYwSC5vWe+tHWZmzkphEkthTszMDjMzMzMzM0e1/z7sUzX3zPl9hK2+PNsDPEKBO0qQWa9SYSN4cToVXkVWTd6ZCu/Ci05U2HkyMupwSnSAF+9R4nBk0+TulGgPL86iRPfJPk4wKTDtqXG4lxNMCoznU0xPingKjEhrZE/zJIp4CozIpGZkzstUGQcvyqjyMrImX0GVg+DFQVSpyCNjSikzHF4Mp0wpMmYvynSGFxtRZi9ky67U6QYvulFnV2TKpRTqAx/6UOg+ZMn7BQrdDh9up1DhfWTILVSaDh+mU+keZEdzI5UOhw+HU6mxGZnRilKj4MMoSrVCZtxNqbvhw92U2gtZsQK1FuXgQW4RtT5wemolh8GDE0mfl/Lqoyk2Gh6MpthR1ciEzaj2ITz4kGqbIRPmU+0ueHAX1eYjC84YTLkdEL8dKDf4DK97HT9C/D6i3gJkQAX1liJ+86lXAfv2ZQAjlkfseo9gAPvCvNsYwjqI3ToM4TZYl/+YIQxB7M5lCA/mYdwmDKGwGLFbXGAIm8C46xjCJ4jfiwxhF9iWm8QALoAHVzGASTmYVsMABubgQW5DBlDj7xlp20Pgw3qd/D0n1VLuqFPgxQ5HUa4Wlg2j3pXw42DqDYNhh1LuU3gyinKHwrDZVNvmEnhSPZxqs2FXnwLFCvvCl331P+E+ni7BbeBNG6odCLOOp9i79fCmZCTFHoZZr1BsJvypGUytV2DVUxSrhEeVFHsKRn1GrfMegEdrnEetz2DU9WlqSuJwal0Po7pQ6rBm+NT8CqW6wKbdqHUTvGpFrcth0p6UqsjDq3wFpfaESStTajP4tRmlVoZJY6k0tgR+LSf+LWHRsbGeRiO4vB8Lg56g0nmT4dlpR1PpifibMyfAt2eodAsMWkqhhuPg2/jBFPocBh1NoTJ49wWFjoq+3qQVvGsVe8HOgRR6bTK8O21R5ENUx1BofyQ3UugYmHMmhaYjmUahM2FOZ+pUVSOZXMWYl5QdQqFbkQAbUmhozCvY+DIS4CQK1UTdbvI+EuCMqBt2dqHOLCTqz/+7wJg309+p5R6mzpswpiLNZsp9SZ062JIvN11QkZaGlufjvUE7D39L8q9R5wyY8lb6Uh3A59R5C6Y8HuCGPplIncdhygUBXhkkn8VbXbtfgJeSyfrU2S/eq+26SFocEe+U5h2UeQRFSTfK3AFTTqDMP5AEOA5PgCVzqXMhkhBX+rmxFjq/gaJkdersBkNmUOcrJCFmAG6GIRdR52kUJV9T5yIY8g11XkUIaTXxN7Huqr4SRcm3se6wfoY6pShKSqlzW6zVsicjhBSYShgyjzrvoChpos48GDI/SGCSd6izFIasYj4wKTCrwJDh5gOT/l89PNY1Jk0oSkpjXWpyuvnH6hSYj2FIV/OBSTVUXWFIFXW+Q1HyMnXOhiH2qxtSYAhDmD4+BrFjCsy/twGKkotTYP69I1GUPJoC8++NQlFSmQLz762FouT7FBir1TcO+uNhSIE6d6MoGUKdEbG+6a1FEuIbXddYA1OFoqRbrIE5n0Jz0SJ5gELnxdobz8vQIvmAQp2jDcwLaJE0RRuYOgptiSTAbtnaWGd6uRAtkjaMdaZ3HIXGoEWyMoXGwZDrKbQXWiSDot0p9CGFzkeL5DUKfQhDviJTK6Jcbyp9BUMWUmkmBFLrquX2hh+o9CXk0lM1f4h3K/cu+EsyMd7d8S9Q6T38JVmN0b5Av4xKj+QBJCUnUOl2GDKUUpcBSD6g1FBYcjaVbgKQfEKlvWHKLCptByD5lEqzYEoHKvUAkAynUgeYch+VGtZFcuxgKv0IU56hVCmSKyn1DExpTam2SEZRqjVMaaLUtkhqKbU1THmKWr3h3RJqDYMpJQVKPQ7vPqNUoQS23EWpn+DdOErdBWN+olT5IfCtz9qRH4EDqPVd6s+UGgBjdqTWj6kZRmpHGDOHWmfPhWdD96bWHBizFcU+gWevUmwrWLOMWu+lYTuhZTCnjGLD4NduFPsC5jxDsWPg1wSKPRP/cyCXVcOryY0UuwnmPES1T+DV41TrBXNKulFs2xx8ylVQrFsJ7LmWaium4qmYZ14/pVoZfJpPtU9hUCvKXQGPnqRcKxg0nnId4NF7lBsPi3am3Bz4s5hyO8OkeZRbJQdvch0pNw8mHUq9zeDNTdRbBybtRL0H58KXod2ptxNMqj+BerfBl12od0IzbJpPvcLr8KTXCOrNh1EbM4C78/BjudUYwAYwqi9D2Bh+PMYQ+sKoXCMDKO8FL/YtZwCr5mDVfQxheD18qO7EEO6DWS8yiO3gw0QG8SLMep9h/AwPbmIYz8OuCgZR9RDi98HZDKIOhn3FMGb1QezWHcswnoFhMxlIWQni1jyFgcyEYfnuDGT/HGKWa8dAuudh2cMM5RjE7FGG8iFMW8xgHkO8FjKYJphW/RqD+cbdFwGB16ph2/UMp7+3vAhcD+N+ZkBtEKHcBAa0GYyb/AgDqlwOsWlemQFVnQbrbmRI95+GuPRZypBuhHlzGFTH4xCTp7ZhUHNg3nLdGdSqayIeTxzFoLovB/u2Y1gNG+cQh/wFDGw7ZMBzDO3M3ojBcbMZ2j+RBXUMbdVpyL4tuzK02kjecwv8wd5deLdVhnEc/6VF5jv9zYeEhXV6CA7zrTsTbJLRQ3Bti823eqHMNZAZLnN3x525uzs2N9wqtGuq9yY3b668n7/hm1x/ntbVYWzVfmXwzYUhhDkZfJV+gYG59/Vm8KWEwRh+pQgr0mFUP9anCLNgEIcpRMTWGBhRm9YeCnEYBuGKohhj7h0Jo+n6fhrFiHLBKBZTlKinvMbKZf0YinIrDGNlBwrz0CkvjCLmjTEUpkM8jOM7qjPYSf89ErkbRrD56rUU6DsYyMNU6tXSG6a0GQr0/OviuelJ9E/ST+HQOfdlg+wUahiM5Gkq0tv3FOTNy1pUon/qvtQV+rXjfHcK9jcM5UUqEbEa+dnajqN/1rbaaYMeVT97n4fCPQ9DcX/l/6jvH29oRv9UenCqG/pSq/HEDgyBKDeM5Wcq8DQK93lH+qti6sbx0IuETmecDI2fYTD9RrNk9tUoQtvu9NszK7qtRsh1nXx1NENm9M0wmr5U4GkH8vmof+/ZhwF0TWUgVt1w5G0XQqXhxnP1UxhKvWA4YUlUINUFX5WY4R9k2NiHgalXZs7O6hDM+9iFVtF2hlhSGIynFJVo4oKP6czwFTKll2fA7MOXzX2tEYSodrhb6eYdqAelYEBtkqjErH7Ia/OTJK9FlptfoTb6/N36xrYH3kSQNPzrvTta1e9N3UhqAyMqRUWGXI+8xrcs1XcBstlSqaVH/r5h7K6jDminWpVSZZrOo96UAkz8F8O0lijS/fr+QNt1jlqRfzBAKSr0VpiwYi5AW2NJ+Qcj+i+GnNfJjXx+vvbLy5ChCbUUCa09Kv9gtFOKir2wAz6q5kydsk2kdp6F5mxl5B+MZlbup2JjDheyirc2gPGVqZXrvNBe1+HUlf3xMK45VM5zwac1Z+6W0B8qUhv770EwhEdQTyJhYOOPU4VPkMcnzHAcmQ57qIk94tf+iLdqPIxsF9Vo4UIu20+XXjPsSy2cQZDYrqV+nIChuctTjauRxwNz7u2HLCObMnDOtxEsXezUi/ZuGNtrmjxljW2m79EXcdSLu2F0s6nKkWANPk5bieBJcFIfFsLwDqRQDc98FObm2xmg+w0yAV2uVP2MqvTeDF83NUKGjQxMRDUEU7qdGpFLm2euoirH+iGvK5qx6dTAJ0bHIbjKUCtyLXzjQO7fj48g2WE5cNNxXQ/v2kkdaAxzmBDAJzUDmOn4eOCwnf4rjyBz386Qm4Bcljrv5Zg2yDVyMHPe8r2S/luMYOsrz3i1s5XqlClw/bEOgGsg/ZaAYAuXZ7za6fcV1amNXPEP5a6liImmnyoj+J5kaH3VD+axier0n4lcyc3J/enItOM4/TMWwbeUobUcZnKS6qzDJe6dF9sgW3g9+mUKgu9uhlQiTKXWQ1TFeQ98BVRMmgPB19XJEHqoFszlZY02iYVXpHqzIUJd+dBRS6WpThcUrvMIfZ7CAA8ydD6E6cSsoiodUUDVTfEAYsZRrUkQ4SOGzKrdMJ8ZAc5oc/1KepaFAe7zHqqTABHCGTLzYUYfUJVB8DWVmfpvBjBsONVIgxDeZgyRFjCl8SOoSix8tGWWpg4Ab37SgcpNhxhfMDRG9IM5PdchkBO5RnZmqYlM6ROp0MIXbRDjD4ZEhxowqypUo0NP+Ijz/f898Hszlijq284QZg1DogdMy/UH1TgPH7WGMNM3yPHD2AosTvknYiFSJENhhQvmtfI4VTjugI+Zpe1kvc24xDXlXHkWam/plgsg2AmGwPGVMLMpKVThPeSTcPnFlcin56S+ZYYnMYfnobKl11/WECEwieI1exfmtli7V8iSY9sg1+7ruxw9emdserWRCJk7Kd4WmJzrFY0WLNz5Bcn2Z10o2sz35kbe7YUwVSncly6YXa1pmjw17NqbWeq4UQTXrWuZIeptiNKZon1RHea3Oo3KTS7x17wPuaq+1OOjRsjRi9kmmDeYtKqwgveoXNSbKNzQRcz2Jf6XUJYZPE28+V5POQ5R2lCwX2ANY6ncOhThNafvgC7HCN93oeP5vyYQJYZi9YVFuMpQMfstKMID05nhdAyyPcb/fYVsqcyyop9ZgxnkhlXMLE/FKtyEovzQ9vnPkSOsWb5jlO3E6QrTbtvmgkmDaTcT1jGgIhVbYYMinTzMtPce+DJpMIsGwEq6PEPFlkKZ505e13Rgp36wRDBJw2At79mpWBUYQwLFqQmr6UblzsIQOlOYq2A9paiY54gMxsfVsCD3LCp3qwwmj9tssCLvQirXxCGDyXHaC2uauYTKvRAmg8lWrhasKj6ayj0yXwaTaVo8rOuHKKrwwUzIYJ78AVaWfpwq9K9t+WCOJ8PakldRjdN/WTuYep/D6tROfPm0hoWDqRcOtWQx7Hi328DBiO9FFsPbz2+2VDCyF1/Jx6laufU/uqDIyOdGmiOY46vhP1kMWanBvlgHitNw6qnUJR0YY/xgfK+PpB1R9M8zo+K21N4e5oaP6p9f1jIy7u/RzNbQDMFEdcYlUnx5BsJTKbpc2UNlMkyv/MWiJPrqbIJg2ochL6l6fWpMfDDpDJq6N8GX1O+Q4YOJZbCs6If8JNuzMpgixDlQkOR6XwZTqF4uFEra5ZTBFJDyFKSi7Nwvg8ln/8uQinaguwzGR4VwFEda+T0197lxg3m6J4oneVtTa7GGDSbOixJJvzllMFlS7oWkxC2LZDAZ6i2HpMwPoyiDuTYBklLeBy0fzEkvVJD+XGvpYNI+gjrS9c0tHMyxt6GWNLSFZYNZ8yYkP2wbQ00cNVYwo1+E5J9GZwwVzFFq4fQCSP5y9YiwWDARi90IgPT2EksFM6QqAiM5vnVaJpiUK0ciYFLVURYJ5tpwSFpwV0mzQDCDu9kgaSRhnOmDOXMPJA1drEe/zdd/MKPPQtLW7jUe+qm23oOxp8ZD0lyNp00azKgHEAyS6+Ijug5mG/2xaI8LQSLNPOfUcTC1qV7Ko7UQRNLjt5kqmIlvI8ikLtNNE8zXUyCAdPcxUwTTbjLEkNwXuxs+mId2uSGM5D2lIpmz+gvmoVNeCCU59kRRoT16CybqiBfCSY7Low0ZTNQeB6SQcDceoqdzmI1UoHxjB6TQ2VTGzpL8BTF+ZEnsA3dCCrHkD9JYrIihEMPxDIv1TOI7kHQg5o6HWIxBEOUaFmNV5G5IOmGbfKgZizIDolzGothX1HZA0pNG529noe6DOLNZqP5XDoCkO+6Xr0lhAccbQZwfXmUBnkOTbZD0aeWpr+lrbzJECr+dvure2xOSniWsP8ZczjUxopNt5WGu6Mh0SPq3+pMX+kcw4qFxNy6AeJ3nLnyEdK4qey4WkuX91x4cCwAAAAAM8reexa4KAAAAAAAAAAAAAAAAAAAAAAAAAAAAAAAAAAAAAAAAAAAAAAAAAAAAAAB4ESkReJY8+4+aAAAAAElFTkSuQmCC;aspect=fixed;" parent="3ZfG_3-aHI2Txs_DAWEP-519" vertex="1">
          <mxGeometry width="30" height="30" relative="1" as="geometry">
            <mxPoint x="13" y="15" as="offset" />
          </mxGeometry>
        </mxCell>
        <mxCell id="3ZfG_3-aHI2Txs_DAWEP-424" style="edgeStyle=orthogonalEdgeStyle;rounded=0;html=1;labelBackgroundColor=none;startFill=1;startSize=4;endArrow=blockThin;endFill=1;endSize=4;jettySize=auto;orthogonalLoop=1;strokeColor=#4284F3;strokeWidth=2;fontSize=12;fontColor=#000000;align=center;dashed=0;exitX=1;exitY=0.5;exitDx=0;exitDy=0;entryX=0;entryY=0.5;entryDx=0;entryDy=0;" parent="1" source="3ZfG_3-aHI2Txs_DAWEP-519" target="bxDrusCjxmz3yem5wkOt-5" edge="1">
          <mxGeometry relative="1" as="geometry">
            <mxPoint x="307.5" y="300" as="targetPoint" />
          </mxGeometry>
        </mxCell>
        <mxCell id="3ZfG_3-aHI2Txs_DAWEP-417" value="Clients" style="rounded=1;absoluteArcSize=1;arcSize=2;html=1;strokeColor=none;gradientColor=none;shadow=0;dashed=0;strokeColor=none;fontSize=12;fontColor=#9E9E9E;align=left;verticalAlign=top;spacing=10;spacingTop=-4;fillColor=#F1F8E9;" parent="1" vertex="1">
          <mxGeometry x="850" y="224" width="130" height="236" as="geometry" />
        </mxCell>
        <mxCell id="3ZfG_3-aHI2Txs_DAWEP-446" style="edgeStyle=orthogonalEdgeStyle;rounded=0;html=1;labelBackgroundColor=none;startFill=1;startSize=4;endArrow=blockThin;endFill=1;endSize=4;jettySize=auto;orthogonalLoop=1;strokeColor=#9E9E9E;strokeWidth=2;fontSize=12;fontColor=#000000;align=center;dashed=0;exitX=0.5;exitY=1;exitDx=0;exitDy=0;startArrow=blockThin;" parent="1" source="3ZfG_3-aHI2Txs_DAWEP-447" edge="1">
          <mxGeometry relative="1" as="geometry">
            <Array as="points">
              <mxPoint x="915" y="340" />
              <mxPoint x="915" y="340" />
            </Array>
            <mxPoint x="917.5" y="328.99999999999994" as="sourcePoint" />
            <mxPoint x="915" y="350" as="targetPoint" />
          </mxGeometry>
        </mxCell>
        <mxCell id="3ZfG_3-aHI2Txs_DAWEP-447" value="" style="strokeColor=#dddddd;fillColor=#ffffff;shadow=1;strokeWidth=1;rounded=1;absoluteArcSize=1;arcSize=2;labelPosition=center;verticalLabelPosition=middle;align=center;verticalAlign=bottom;spacingLeft=0;fontColor=#999999;fontSize=12;whiteSpace=wrap;spacingBottom=2;html=1;" parent="1" vertex="1">
          <mxGeometry x="880" y="260" width="70" height="69" as="geometry" />
        </mxCell>
        <mxCell id="3ZfG_3-aHI2Txs_DAWEP-448" value="" style="dashed=0;connectable=0;html=1;fillColor=#757575;strokeColor=none;shape=mxgraph.gcp2.laptop;part=1;" parent="3ZfG_3-aHI2Txs_DAWEP-447" vertex="1">
          <mxGeometry x="0.5" width="50" height="33" relative="1" as="geometry">
            <mxPoint x="-25" y="18.5" as="offset" />
          </mxGeometry>
        </mxCell>
        <mxCell id="bxDrusCjxmz3yem5wkOt-24" value="POS" style="text;html=1;align=center;verticalAlign=middle;resizable=0;points=[];autosize=1;strokeColor=none;fillColor=none;" parent="3ZfG_3-aHI2Txs_DAWEP-447" vertex="1">
          <mxGeometry x="9" y="-7" width="50" height="30" as="geometry" />
        </mxCell>
        <mxCell id="3ZfG_3-aHI2Txs_DAWEP-450" value="" style="strokeColor=#dddddd;fillColor=#ffffff;shadow=1;strokeWidth=1;rounded=1;absoluteArcSize=1;arcSize=2;labelPosition=center;verticalLabelPosition=middle;align=center;verticalAlign=bottom;spacingLeft=0;fontColor=#999999;fontSize=12;whiteSpace=wrap;spacingBottom=2;html=1;" parent="1" vertex="1">
          <mxGeometry x="880" y="352" width="70" height="65" as="geometry" />
        </mxCell>
        <mxCell id="3ZfG_3-aHI2Txs_DAWEP-451" value="" style="dashed=0;connectable=0;html=1;fillColor=#757575;strokeColor=none;shape=mxgraph.gcp2.mobile_devices;part=1;" parent="3ZfG_3-aHI2Txs_DAWEP-450" vertex="1">
          <mxGeometry x="0.5" width="50" height="36.5" relative="1" as="geometry">
            <mxPoint x="-25" y="16.75" as="offset" />
          </mxGeometry>
        </mxCell>
        <mxCell id="3ZfG_3-aHI2Txs_DAWEP-453" value="2" style="shape=ellipse;fillColor=#ffffff;strokeColor=#BDBDBD;strokeWidth=2;shadow=0;gradientColor=none;fontColor=#757575;align=center;html=1;fontStyle=1;spacingTop=-1;movable=1;resizable=1;rotatable=1;deletable=1;editable=1;locked=0;connectable=1;" parent="1" vertex="1">
          <mxGeometry x="440" y="220" width="20" height="20" as="geometry" />
        </mxCell>
        <mxCell id="bxDrusCjxmz3yem5wkOt-2" value="" style="editableCssRules=.*;html=1;fontColor=#999999;shape=image;verticalLabelPosition=middle;verticalAlign=middle;labelPosition=right;align=left;spacingLeft=20;part=1;points=[];imageAspect=0;image=data:image/png,iVBORw0KGgoAAAANSUhEUgAAAoAAAAKACAYAAAAMzckjAAAACXBIWXMAAAsTAAALEwEAmpwYAAAAAXNSR0IArs4c6QAAAARnQU1BAACxjwv8YQUAAGNcSURBVHgB7d19kF33Xef57+/cbvkxdovEkAxgXyXxIHsfLA+kls0S3JqqrVn4x9ISG8JkkERt1Q5M1UrerWKTEKMW2Uk8UIvlhU0yBVtqQSYJdljJzDKPNVF7t3hYEnCbHWyRB3TtPBgCQU0sP6n7nt/+zvk9n3Nud8vW7e7b/X65pL733HPOvZaO7v3c7+9JBAAAAAAAAAAAAAAAAAAAAAAAAAAAAAAAAAAAAAAAAAAAAAAAAAAAAAAAAAAAAAAAAAAAAAAAAAAAAAAAAAAAAAAAAAAAAAAAAAAAAAAAAAAAAAAAAAAAAAAAAAAAAAAAAAAAAAAAAAAAAAAAAAAAAAAAAAAAAAAAAAAAAAAAAAAAAAAAAAAAAAAAAAAAAAAAAAAAAAAAAAAAAAAAAAAAAAAAAAAAAAAAAAAAAAAAAAAAAAAAAAAAAAAAAAAAAAAAAAAAAAAAAAAAAAAAAAAAAAAAAAAAAAAAAAAAAAAAAAAAAAAAAAAAAAAAAAAAAAAAAAAAAAAAAAAAAAAAAAAAAAAAAAAAAAAAAAAAAAAAAAAAAAAAAAAAAAAAAAAAAAAAAAAAAAAAAAAAAAAAAAAAAAAAAAAAAAAAAAAAAAAAAAAAAAAAAAAAAAAAAAAAAAAAAAAAAAAAAAAAAAAAAAAAAAAAAAAAAAAAAAAAAAAAAAAAAAAAAAAAAAAAAAAAAAAAAAAAAAAAAAAAAAAAAAAAAAAAAAAAAAAAAAAAAAAAAAAAAAAAAAAAAAAAAAAAAAAAAAAAAAAAAAAAAAAAAAAAAAAAAAAAAAAAAAAAAAAAAAAAAAAAAAAAAAAAAAAAAAAAAAAAAAAAAAAAAAAAAAAAAAAAAAAAAAAAAAAAAAAAAAAAAAAAAAAAAAAAAAAAAAAAAAAAAAAAAAAAAAAAAAAAAAAAAAAAAAAAAAAAAAAAAAAAAAAAAAAAAAAAAAAAAAAAAAAAAAAAAAAAAAAAAAAAAAAAAAAAAAAAAAAAAAAAAAAAAAAAAAAAAAAAAAAAAAAAAAAAAAAAAAAAAAAAAAAAAAAAAAAAAAAAAAAAAAAAAAAAAAAAAAAAAAAAAAAAAAAAAAAAAAAAAAAAAAAAAAAAAAAAAAAAAAAAAAAAAAAAAAAAAAAAAAAAAAAAAAAAAAAAAAAAAAAAAAAAAAAAAAAAAAAAAAAAAAAAAAAAAAAAAAAAAAAAAAAAAAAAAAAAAAAAAAAAAAAAAAAAAAAAAAAAAAAAAAAAAAAAAAAAAAAAAAAAAAAAAAAAAAAAAAAAAAAAAAAAAAAAAAAAAAAAAAAAAAAAAAAAAAAAAAAAAAAAAAAAAAAAAAAAAAAAAAAAAAAAAAAAAAAAAAAAAAAAAAAAAAAAAAAAAAAAAAAAAACAq08JgA2191MX+qqQfarszZSF7hc9dZsuZUZE983DM/VOSvWbx5l/rEta6yVzc8k8vqSUDMqhflZJuVjdfvr+PYsCjNHFA/2Z6eun+6XIPm2uVyXqNnPdzmiRfvXTXJczot01HOjqejbXrfllrl9VXcPmvrmWn61+llovTvXU0sqllcXdZwdLAmBDEACBMemfujBz3fUyK0XRV0rdpUs92xXsrrIF8yH7lOhyQZfXLp5/z1sGArxGL/9Yv3+5N3VAaXP9irmWq9Bnvm2Y8CbVb6ooVH27Q9ivCoDuo8ZuK2XkR4/SS4UUi2WpF3uFXlzWxVO7P/lFvtgAY0AABK6SKvBdf23vgEzLPRsU9tZmqivm9yf0sDx7/j17FgRYRVXhk+t7B3pS3KOVPmAqfDNViIthruIDXQx2nt+v/mlSXH0jOybhd+ygCnO8uIdVVfGWRa3UEyYcLrxh/vyCAHjdCIDA62Cac2dVrzhgbt5jPq32yVZmmomV+QAtl5dPEwbh6cP9mW+tTB8ypbwDJpLNVtt8LmuHPysLep0VQL/N5z8f9prhMe5Xn8vfV/ZXyIdF8lFVVM3JesFsOrs8LJ7YPX9+IACuGAEQuEI+9JkPp0Namv2dJkQVBrWaL1emTtNMvDO98N69s1qvHPehr62jareGZhNvGiRHnT+ESOUCYR3+VHhq5e6rZLv2r60OibJgzjHfK+SJ6z5OGATWiwAIrEPdvHvj1FHz0XNsYkPfKFrO6uHwEaqC299FU+0rLhdHTRvrsfZgDWtUda9r+7orgFVzbpUDJa0CNp9YQvgLezXCYPhpyn/K/WxsP6t7w9M3/coXzgqAVREAgVXU1b6p3nGRUVWSbcRUBU3x5sT5+2+dF2wrL7z37bN6qI9rpWZHBbC0S56PeunjqwfA0dXCOsyF47p2iD9VqPCJf3Y70KS+re1vRXiReVNxeh6RgdnvZG9KP37dSaqCQBcCINBQj969sThsPlWOmo+bvuw0BMFtwwY/McFPz44OaM0BG03VQ0Vr9O7a/QBXE5tw7cnc+cQOAGlV/HzAUxJjqcq3t4+xj5vzzfdUeYIgCOQIgICzrZt5XwuC4MS6aIJfrw5+vnLdrNA1+t+lXKpbvf9efp5KXg0UWU9YbIz29TsnTbod23xYVMlxjWPrqqOKz+3mIpzvyS4TBBcHAoAACBD81kAQnBix4je6y8J6mm1HHbN6tW+187X6BMaQ6cKa7+8XAqHb3Ya9WPnTaZNvs/IXBou4JzV3tXL9Bf3ziMz3SoIgQADEjrb30ecOm9at4zuyqfdKVUFweXiEwSJbz8XDe/tTy8NTpTZNvUlnvnbYcz+zOfi05KlrtLUGiHTdD8eEfoXm96KIzb0+HLqBHfW9UPnL+wWmff60LwqmTcHJsarwKVBi07E/oL5fzBfLPYIgdiwCIHakHTW44yqrPjhL88HJ9DGbrxrVO3V56mgpMjd6L+1/ZCGvu5q3StPwa9A5gbQv7hUqr+aFg8T13Uvqhj7kJcHQ/8wqhMoPIPHn1I1wqOJz276NA1HD+RseevqEADsMARA7ih3gUQe/Y4LXxXxEzz1933fzwblJvvXjtx/WSj/cnM4l9t1LB2109wHsfmx9+6w2HYzvd9fMkDZ4NfroFSrM6xeqdHVos+Gt3i2d7qXR9BsmkC4azcaSBEeVhE8bFu3Mg+FxNSh7+sgb/pf/uCDADkEAxI7xd3/zuQNThZyin99VVDcLT++nGrhxXjbNvcuvrpyq+vmtu2/eqk28V9AXMI4QsUemz91sVnZHZD/SACixmTZr2pWkubZZ0UuCX3MUsGv0Do/7JmLVc9PPKN/0rENojM9vA6sJkfPFlGkWnqNZGNsfARDbXj3I4w1Tp8zn0wHBWJiWuZMvXhqeGBzZsyQYmxd+/O3HS6WPmXTjvsSkoW/1t/NRIXG9EzvbqWD0FZ07KGKlLmny1S7EuXZZic2/VWSr5v8LuVW35v/zTb/1pqLZ9CtJ029sBm43E6s8VNo+iYOi1ztiQuCCANsYARDbWt3Xb7p3ikEeG6CqBurhkfP3MUjkarv447fvM/HrlAkt+0YPvoj99+p7Hf37fIjzx2VFu3S/sGpH/jyjzl0HNlNO61wzuBXAVFoY1LpwZ1euvbdR5WtW/+qI5kb76qzypxvVwuR5fPBTkowwVq3BJv61umw4d93cn5wQYJsiAGLbuuOx5x4W+vptuKoa+Kf33fqA4Kqoqn4m8Mx1Bj+3sV4tY8SAjpYqaxW27bMzsLUCpbi+fN3nS0f51iGwLO3qHUm1L2/WTc7RNc9fEUOan+uv2Syc7e+rhlkzcwxy/vmzPoOtYBmPz5ueqzWzi/00CWM7IgBi2zFVv770emfNm/ddgs1B38DXre7rtzw8pXU5W1XuKqtV4ZrVvNUqgTJyQEj3cWtVAFtCFS9vek23tZpq01DmdtO2SGeqhPagtOrX6kOYPq/v06ckmW8wbxL2k0mLSGtwipL0PLJk9j123YOLpwXYRgoBthHX5HuO8LfJTJO7mlq+cOdjXzkuuGKX3nv7URP+ntQ6LuHmQ9foPnoqC4BpE68flVvxYVJlJS+RtD+hHUEct4XnNtW9fLWP9uuQ2FVPK5X2tUvacNMqXhYGk58qBDLl99WrVOzsEnIq/P/Vt6tKZ3genT2vVjq+LiWNEKricxVqxuw7//KH93EtY1tRAmwTd3zmK0fNJ9VJwdai5aweTj9ANXBtFw/0Z3o3TFddFw6vNjCja/Tv2mv6rkfXRNFt9nnjNDPZ6wlNrUmVrlmhczvUh/mFOpKJm+OgDpHWCOGi3axcz+niyxlFEnjT/oDJVDG+K2RefXQvsBlIY26tKpGPv/qqOrJ7bpHBTph4BEBsC3tNpcl8PMwJtqaqL1U5PPj0/XsWBZ0uHr59X3G5PGP+sPpdj/vQ1RzIYa02gfPaj42SriSSjgKOs72UcbBIqJ6JraCl060oFUOcch0KXcusbXJ1xzWCnw99of+eD4lKu0qfblcU/f4+J4bRwyqfSDoJiT6stpuhY7Oxbyaur2Ut+697P/0CMdloAsbEu/PR504R/rY40ySsVe9JmoS7Xfrx24/2VuScCTX9WHhLBnkk4a27KXhUiIsBr910Oyr8pU3BcT6/9Pl887KdTNlW8nz1zz6LjiGuiFU1HYOVilW8vOqmktv2f17HCp2KI3ntVDGqY/oXic3evgm4fg0df15KhcpfOCaESZWFyyQg9qWnzr38kX19ASYYFUBMLOb3m0zVUnIvvbD8AHMG2qXcilenjpt34mNpIGtX69IqXimrzcnX1F35k1UHe4T7Yf1e6aw4uqEZyXQsdiRwHuhc1S8ELXtiHwLdE2UhMDTVqqTfX/Kam6OH0wpeCHWhypee190tVFYBbMxPmFcU3Y/WyGGRgaxoKoGYWARATKQq/F17Q2+BwR4TilHCJvzt7avLK2fNm/Bdo/rv1cEmy27dIdH3ebP3VceI4OZ5Vre+yaF9uHO3ixio/DJu4cnTcCci+YALafxKmmTd4VJ0hTQlsZlYJ+esUl7pmn5VY1oYF2iT0NicDiZt7s2DpLbLxyV9Gs3mpWKo9+/6mUW6NmDi0ASMiUP42waqUcLTy+fu+M0LO7J6e6nu7zc8V4W/ENxUrLRZaRNtbIr12k2y8fzN6WCS07ce69I15YtyYUv5Z1K+L16o/iXVurTyluyjbFBUhcqCl+4Kf/W+Eqt2jfAXX0ec1qUOf9X9ovDlySwcSjrZtKh2ABVJ+/pJaDRXbgW8IrwAf76Zcqo4d/nhffsEmDAEQEwUwt82Uq3OUvTO7LR+gZfe+z1Hh5f1k+YPoG+3xGCWjqatpH3wRlEq6b+2yn6+D2A9UXNH8699lrihWUX0807HCppKDwwhLK3uZaFNkopa3VQsoX9goZImWfHHh3lksoAWjqtWECnshlip09KuKEo4d7YkcuHCYfriVONmmJTaB0eVPI+rfhYmBKri3Msf+/6+ABOEAIiJUvX5I/xtL+ZDeO4/sau2bHvVqh7DcuimKsrDl63ileG2TRrtptd2MNPhVyWO0HXrd4RRvDGZZcEvuZMu/9Z4KEgnVQ5NwI2g58ORr75pJXE/EdFhEEgS2CQJVTJiiEod/goX5eK2UEVMdy1ES/KcEiqEEkYT2yCZPr+EgSwh5Kr8NfpBL/Fxqc5xs1y+TAjERFECTIiNXtpteulFue75b8rUK5dl18UX5Rrzq3q/v+biJemZbVMvX3afC9oVBJRrBdOqqmi8MnND/firu2+sf116825ZuXaXXPo731b/RIPWi3q46+B27BeoD/dnXlhO5/dLA55/G+6MPI3E196n1UdvjTn8/DH1rlm/w9VfU+hrVymyiZjjOZKqW3gOFY+1I3MlNOH6SZ5VFtSkESZF8uqbSGMwRtcAjfh6VbqCSMdzNI9zVcVsShpJw65/De5/Xunk9asLemrq71/3U38wEGCLIwBiIoxznr/ChLnrL/yFXGMC37Vfvyg3Dv7CBL5L9edF4T4QfZ/2+n41CtM1O4XBjW5Ne6V1u/VJ558x1a9Lb/k2eXXmRvmbPd8hL5jbf/PWNwuk+sPZdoND7GCP4Vlz/daV67T5tTXqdl1hTmd9+pqPyRrNxdnzunWB2yOORbqCZnYR243iK3nV1e+/BflRtvl6wDpfui05RxrQbOjSybklBqwkDKr0PHkFUtt/qBJGE/sue9KclDr5f1D+uWxFMCZHpcNgEfv6SvtQMlBEFdrOSWP/fxd3XV7Zrx5gsmhsbQRAbHlXe4WPKvDd9Mxzsuv5JbnpafPTBL9KqOaZ/8K0YW4SDB8E6+KAXUIg27/6IC0KpUIgdB8HWQD0x6l4fL2fO/dFEwL/8o5b5Zt73izfMlXCHWsbTRpdhb9qsEfs73f1tMJcY3srO7q1L0a97bfCpz3Ip694mG1F7ayouapbXQL3oak+i9IdK4LYOyqZ0iVfh9fe8KuCpMf6apwNZVWKjRXI+JhINso3Pa/vb6jyyp6v6vlAGgNeslawSGNksYiENYf9TvrsNT/9+YMCbGEEQGxpdz761X1alU/K61SFvpk//rK84ZmvmGrfX7pPMPdYfTsGscK+gScVPPtB2g5/tlKhtA2AvaL+BM0rfyJJ4SI2FefnljBHrd/+smky/ss7b5XnTSD8651ZHVyScnjkmR/dc1YmVLqyR3e46tKc5sXP+efX5lUjj4nPsY5m4tbz5cekawiHFT1iwBsRqtyduBSvxD5/7t+B8n317EXv+xNqpfMwWfFNsTF/1v9IfaiLYVFJqxKYhDl/rva0LpKG1lidLJI3h2R/H/78MflzVhm0ULFPYx1M56757z9/QoAtigCILWvvpy701XTvXD1a9DWoQt9uE/pu9KHPa72/+9CmQn/w+vu+dqMTXXCzBQx/31fzJAmGsr5fOn/OeLvx2SemEmYee+mNN8vgHbfPfOU/2zPzkgmGO8pQP/DMj902ces7v/Det8+WWp8xKWVmrX1HhbM8AOorPl7sNewqU0m10PX7G1VBzMKgC0OxGVeyCzUGIRW2mX2WzEteSip8fQnHdU3SrLNAFoOlikFOdczL1zouObdIDIhFe58Y5EY1MeevIX0dovIwmfY1DP/P1Y+qUlqow7v+uz88LcAWRADElrX30ecW1WsY8Xvt838jNz3556bi9yXpvbocwp72zbWSvL+LD2OqDnWFShcxiMEvrRD60Fad0PaFV2H/ECDTfn/N2/45TVOnubmoShP0lDxlPuwHKysyMIlhaW4w1+o/NNefm/n0Lx7aZ2LqYXOGQ7JDmD/duafv++4TMiG+9Z63HTLloHnlV8VwRq2wMVpenVutipg/1jWII9nW2e+v66Qu61TNuc3AZx8316iu/o0uauk9Nb1LFl555ZWl3fODzr5vLx/b2x9eLmbKYqVfqF7fnLNf//tWMls9j64nB9RJs21HMFR+Cbh8tZE8UIbXnoW/rDlYSRYWsypk9v/o1zOW0BSd3Ld/qIXKQmD9px3OJUvlVO/u644wKARbDwEQW9JrGfRRVfne9Nmn5MbBN6R0AzWipGnN32r329NqPVOKuYqID4ziKnoxENbB0bV6JYNFlB6YT9LHzUtbkOFw4WRHyFv3n09VHZ0qDpinOmpO3JdtblJCYLWm71B0Ms3LWm+x69mnbXT1bvX9Rz2frzbG5GTDq//HkFTJlsylfbqQ3tkVeWVxVNi7Ui8c2zur1NRd0tPVNT1rX4b/ByY2bSndCHBp5c3/j4jtn6e7Bpyo7NuYao9eTjrnJucskupf2Nd9GXRT0jTPV73ceqiIfUNZnC6u36+OLDAoBFsKARBbzt/9zecO9Ao5s979q+B3iwl+oZlXJf3dRbIPyVDZc4+mzbfh88IFP98VKKxwJbHZNzQBZ334tO7ZT5+wj/l9QenyiWJFz5vAN5AxMJXSw+ZJj2/3IGj+rk7+6X23PiBbVDXHn/nQn7P3RvXDi026o6qA6SjhUL4e8WVmPf398udp9DGsmoPTJxXJVsJQMVgtDJU+IbJy1ULfKPpYf+aF3htme1PlveZ1H5Y42KI13UwYwFG/bv9a3Z+fL+aFfdLwF4Okn9pGjWgq9oNXYt9HlYRKScKg7UjopsqOj9WhVE7uOvKHW/baxc5EAMSWciX9/qaXLpng9ydy8x9/ufqI00o1PkxdcEtv+/52Rdps66p52Xu6+6woGn3B68EefqoLty02DfvbpmlMD0+beuDZX/nSgwuyQXZCEDR/8vNPv/vWI7LF1OFP13/2KvvC0bhdWc9juebAkFjJS5uZV51OJtH1+sLPIquqLZm78yuq98ju+fMD2QR6bt/Mi68MD5h/o8e1KvuhMpcGu/q2+79oVumUTqqF0gp1IhL/nyvptDHuHHnfQwlT3aRhsrO/YeN1lFLsN03BCwJsEQRAbCl3PPbsvKyjf9sbf+983dxbDfQIVPLhmjbhhBCn8+AnKjYF23JI7AOYdj/S6ft4OmAjHcBRjwa+oFT561OX9cnX07z7em33IFiFwJdeGD4wOLJnSzSp5ZW/aO3m2Y7+eSNU5yrLUpRae7803I0+plFFVEnArPqtaf2ITK2cHHe170q88MH/dLaw7w2Hwz/ISlLRi82xKq/iqVgRXC3UhfMk5/TPESp/6YCP5PFqLkA7Q7bkx4k91gTNwXT5yt3qCPMDYmsgAGLLqIOLklOr7VMN8HjL//l75ufFsK2z+ldJKoBFssne1q1tIdBpSZp1JSkkdIz0tXWHgbk9979/4cHTsoVs6yCo9eLLL5b7NzsE/q0Jf9IR/iKdtB2uFvS6B3r4Zlo/aGP1EcNrV/zS+2G7Dzv1q9Anyi0W/JpentvXN8F2zrzuQ+FlV/9K03/QKs7lF7d1hTp/W4VKoGo18eb7xX/8SpLm6XxexEKHESG++ugqlSd3/QRNwdgaCIDYEtbT9Pttv/eMfMe/+nx9O4zoTat8SeDzWu/V7rjCfjDb8OceK5rv+9oN5ggjfVtzBC6ZX4/sujzc1IrfWrZtENzkEPjCe//u8TqI2Bcj0qjmjQpe65ENyvAaMzt3n2+1QR6664nqY0x4WdBTK0dM8BvIhDBBcNa88lPmf7ffDGTpP2SVVO9acxgWzYCW7lsHNj8hoqSDPtKRwXklMp1iJp43DaDmx/7pf0RTMDYfARBbwmpNv1Uz73d/8gm5/s//wm5IP2cbwS+d6iXvlxenb0mrff7zwg4G8e/T9RKlyofFbFUPqYNhVXJ8XF0ePvDxMQ3suNr2nbkw88pKccz8/xyX7WSTQmAV/sxVMNc19UreT6+672rOzQAWuq11jdDVks//l5zf9fsLjyXBUK1rehnHHjEolT6y+xNfWpAJ9dLP7zsm9RccmYlBUMSX8lVWvUsDYlcFT+y3RPF9QRqTRNeVQm3H8BRxwHA8Z9IMHM7dfF4Z7PqHf7BHgE1GAMSms1Oa9C50PVY1+X6XCX/TFy+tfhIl+cjf+vfYzy+EuaTpt0iaesNnRBYUVbItfPwuFUN95GNffnAiV6hw08fMyXaaR3CDQ6Dv89c5cCOEsTTsqazZ1bTp+oZXSb/B+DlXRjX1ds/11wyKbZ3VRHOzVHJCLpnm3rNbt7l3vapmYT1VVwNnfXbL+vElFcHu5lzJB4ikjzcGfKTNCh2rotjuKD6OK50f557fbD1xzT/8gzkBNhEBEJvujseeO2d+zDa3zzz55/Idv/M5O9AjqfJl3PYwlYPEQR5pXz5b5YtVP99yE97fpTnFi/9Cb5uAC5swF65dHh7cys2967XtmoU3KARW4c9cEHPrbcqttEbadlb8RLJAma3b659rvW/Xeq19F0tRR3Z/8osTv9Zy04sf2jenenI8beKtpZW4+r4Pei6k+X0a/QhtRc9VadOqnus3YpuJVVwxpbA7pE2/3f0O1dL0q9fsYW5AbCYCIDbVqIEf1QjfW879ib3T+PxLK31tzWXdGgM3tG/58dO/xH8E+bx/+SAR8+vEx7/w4JxsM3sfe3Zu2zQLjzkEppW/7kEVvhqoRlTrcnkgLDuOe+1ig3Cj8mde/82f/NIJ2cYu/cK+fb1SztRfbprBywc7P+WNq/zZsOfeAJpNtiISmpKTJuF8sukkLCZrGMd1lJuVwjpsnpz+0d9nQAg2DQEQm+qOzzx3oTnwow5/n/2Tzv3zPn65+AU/bfqVOFlz/VBc7k2ylTxsWPSDPIp42qWikIMfP79x8/lttLpZuFec2xbVwDGFwFFTvTTGZUhXVW/0QJA0LLaCWut83fvl347c5dt1nkFZqInu63clXv7Ivr70lLmm3XtLs8m2+geuJQa40C8k+bN2Fb8wMXY4j4R9GvMmuu1+H9UInv7BeH+61HvUe1gmDpujEGCTVNW/9Ya/0MSrGh+SyfupX4Ej7/eXVwDTtX7TZdzS/ezxVQWxGBTF8O7tHP4q59+zZ/DM/bftqaYAkUmn1L7rbijO9U9dmJGr5G/r8Ne9LGF79iFXRXLyap5u3FfZtnCubCfVPLtWvjnTbVHJE2r3BcieL7zI+fKl4d07JfxVrnv/4uCVaX23+XM6m74BFElfPl8BzEr97qet2PnQnRQIk2OlcO9LSsK+IWjGN5mOEBjPNZwutkf1HRNJCbBJmtW/ZvhLq31dlT/tR+v699i0OdcFOntbsnV9fYUwPFZ/Dus8IGo9kGK4/+PnJ2OU79WybaqBWs4+c/+tB+V1uvTe248OS31y7UEZfluzAtcepNEcPNI1crercmgPKrN94/Olz+OqhqpakUaZJt8vPiI72Mv/6987Zf5MDktjAEf4UwxrPaqsmTafOHqV+QFVUn1NqoPaNSMXSoWg6AcI6+Q1TC3vMlXAhYEAG4wKIDZFs/pXhb/q16ivJKq7D5UKff6SgBfW6U22u8WykgqfrfzVn5jaTw0j9tO0Cn+Xd174q2ybaqCSA3d+5rlT8jpces/bDlXhr7qdN9va282A1lyFw7+QriZg/8udUTUric1gGfYPbZaxOuWfJz5v/WtQarV/p4e/ynX/0x8fMX9up9M3iRj+6n/wYYOuV/LVrQmkfVUwBL6kGigSg2J9u8rhyjYdF3ZOqSwohiqiuzvctUwVEJtCCbAJ0urfjc98Rb77kwtpy5nlr850lo1ktG7WX1t8oBNdpK0x7tg46ldJnMhZh5HB4f1ey0Atm/A3IfP7jdPexy7MKl2cmuRqoHqNawdf/PHb9xVKVxOTz6xxfmmGPL+lTGbnS0f+1pW6MnnUP1ZNL2nKRa7Ip7qfL+kHqLv2q5ckXBi+vHJwO0zvcjW9/Mj3zps/rUP+fmuaGLE/fZ8/lW3P9/PH+f38uWylUOzKLWEASP1s4RwqHBfPOaV27VYHGRGMjUUFEBvOhL8DPvxNL12S7/yt3xvR3NU4UFWVPNd4q9Nqn6vK2BG88X07VP9UUu0r89HBPhRK/Y+B8Jc4f9+eBT0s95ubCzKhzN/44Tsf+8oVVVgu/li/n4c/3TypDs24pdZ5ddDfMjGvCHXl5Pr2y6/F4BZynJv2pQoPjYMkrzr6pkqVVQMrpagTN33qS/sJf23XHf2jw1Jdyypt3pU8/KlkRLc/MGkWtnfdoJBQGcyPr35zQTAO0Un7pPg+hL6KaG5fLi8fE2CDEQCx8bQcrX5U4e+2X/v3uprnL23iHTUNRtps5it4SvyADZWs8OGCn/gKoVvNqa692NKh3z/0/TO/hlPFQcJfrm4Svu/W/ZPcJGxe+9x6Q+DLh/f2i2LahD+dVP7sNRPvVguElTGEuUAYL9t2E3F6fHvUcHwee42X/m4aO7Jj7T4xeOp6WcJqbr8vzQlGumY4PChVlT+EOh2a79NBHDGkqSwgivJLwKmwTTUCXQiSys4r6Dqq2GqvP6fEfavzFT05qs/MXrWBS8B6EACxoapBBuImfa4GfJgQ6N6G7X8tsXCSvr9KumJHNorXd5GvP5QlBLy0n182RYw/l1IP/OrTP7vtJsa9Ws7fd9ucqOrDUw9kAq0nBF404e/y5eVz5rrphypboLJ9s4EddSDUWb+/to6iXtjeDIft87QGjqgiebwYmAbl/Td98ovzglWpBxaX9HC4X6oBMqpuUrB/+v6PU0nazTJ5k8jfgMKgDknuJ/vrpBEjVgH9AToJgSHYzywXrx4SYAMRALGh7DJkIt/2e+fl5j/+ctyulHQN9AhvrDpW9woVP07je7Idbef7BNZfvHU+7Uv8Hp4Gxvr+3Mf+7IMnBat65t17ztZNwhMcAu/49LOdTW36cH+muLxyxlwR/e6l2PLBHXG0rWTb06pcvj3uFyp8cavtE9g6V/Lsuv38LiwOynJ5/3Zc1WNcrntg0VQA9ZHw56zcu0yjMpeHPz9KON+uknkDY6t8fp66Clg0zx0DpBvLZjYVBwTYQARAbCyl7qnW9b3ls0/lHbD1iN1901fyy4dB17qSv1fr/Mu6+CkyxFb+QkXQPV6oYvDxL/zcCcG6VE3Ctl+gnszA0VMP7/3MV1uVlhcuT50y1+O+dpDz8oEc6bZ67xjI7CPKzjTcDIr+sdDkGDeqdITwqGbiLJSWeqF8afnu3Z8eDARX5Jqf/qOzWumTvklWZZW7dFSZpdyoMz/oQ/m+JSKh+Vc3w509dXISicExCY/VFwK3z+zyme+fFWCDEACxYfzgj7f81u9r9cqrpuhRhjaS1jQYaXUlqdiJbjT5SvJeHVb2qOcHFNvXL3vfre+nTcC6WN4vuCK2X+Btd5s/vdMygZQuT9756IV9/n69vq/IgdDH1I7SkGZw85U7H+7ybXnF0J4nbReU7LFsGpjsp19SLq0S5se7JzzNYI/X55prVk6YP/JB+kZig13hK4Iqb/pVzZ8q+zbpwp4qChcolaQDPnRyrBadDQyKT0UVEBuHAIiNo+XwzU9+WW4Y/IX9DpyEvvoDsaNJzVbp4rx91e1WH74w2rc6UT3KV/mBHrH6J1XFJAzeqz/Cy/LETpzr72oxIfDwhIbAGa165/Z+6vl+Hf6UmrObY58+dyNeh0l1L1+OLVYAs3OIxNG8/n4oLsZRxH4QQipepSOduPlffPGw4HVRRxaXzF/FETeYx22U+g0la7K1P3Ws/OX9+rRKglwRJ31udiHNWofTOzVtpyBV6pAAG4QAiA2x78yFmemlS/fe8h+eGrmPHdKRzI4r3b8qdQjUkq/wocNqIXElJokVv0L5t906FA4+/qXjc4LXpQqBEzpCeEZNL5/72vVvnkubXNMVN+ofjeqc1Qxn7f4LaYXPn1eXuqNjoAoHNEOB8tXsvFn6xM2M9L1qrvupzy+Ygp/t/5s0z4qEAp4Lg0qlic6PwdHZjtWdZMWQ5JzucD3qdSQjyGeWz/zArAAbgACIDfHKcu9ANehjeunFVfdTYerctGnXhsNY8dPp+2qyr/JVQtW9BGe64kfxupcJg1WNEJ7IEKil/9Pv+iV5YfrGRlVPpLk0W1PoE+bm5Use8b/r1mCOxtx/of9D9lijGdmNMK5Uc/wR/q6+6eLyCalHBUtsxk3DnUicN7CQOO+ffUTCbv5NSRodkcOAj9HXVBItzX8lzcDYEARAbIjrnv/m7Lef+//CB2dKpd+WdajQhVBXfRIWoSk3GckbKoA6/qwrg+n95vmqQ/X8R7/IlC9X06SGwOevf7P89Lselku7bkq2jirUJAExnZBZJBvUESYD9nMFirT7B4bztc+ZcwGDOf7GpmoKlqoK2Kja+fcZ/9fke2X6/n31t0w383zavy82J+c/kytAtPab/UrO6QtS9wqwAQiA2BBvfOJP760+4MpGpaXiW8bie63KwptbP10a78eNvtg6TgOjfENwMjAv+bWrV05cUJkEkxoCv3jz2+Rn/oufr293h7CoPUWL7mg2LkMfr+aI3mZz86hRx+mcgqrUR5jjb7x2yeVHzJ/1QKVvFIUKbyBubEg+kMP/tfv3nORYWz3UfhHyRPpFQCStCiZXQv/ymXfuE2DMCIAYu+/7yO/PXve1v57x6/g2B0cW7oOw/kItSSVPdBzw4at9fp+0/58Olb3sftGctqseJVzMn2Tgx9hMagj84zfdJR/63v+5vp33vcu77TUncvYTQttBTHZgUzZJdOMYmxt06F+o45cf3Wr+lbrZ98hNn/7yvGCs6gEhIo90ZX+dFGp9txNRvtIrzUJufbtIV/zInynbWalGC0h81lkBxowAiLF70xP/cbZa9s2HP7uWZvy8q5tDtLufLM3mG06yUb+u21To46ckVAvrIBnCoB2cF9+f7fP21PLEhZNJM6kh8Hdu/Qdy8j//J2EtWKsZ/JpTw8R+fOk8fqNUI4MbK81KONgngPoFyJL5N3F4N5W/DXONvDpv/laWbEp3I3kLO8F8mtTiKh86CYLK9U+R+ratCsYvEUkNOHtO7ZaStt854nbzJYJmYIwdARBjd92Fb9zjP9yUbRbTbt17ty3/VaTVPx2agSXty1cfpyQfBVxW503mCFSx8ufO8zjVv40xqSHw02/7Efm1vYfqrwvtIJc3D9tKXncwDPso1WoCHslXHc1vpVb7b/rUl08LNoztC6geSf/ObLx3Id81K9idk79b9ybjxqolOd5fQ279YJW+e4VR377xInRfcdcSTcAYOwIgxk65tX/j/TjSNyzrVg/0kNCPT+y2PBiqpG9gOgBEQjVQ+cd69TrsKvYRrKuOal6wYSY1BP7aHYfqX5YWFXprNd4uG+t7+eXclMS5Y2JFsDnfX3o7Hwlc1gM+WNptM+xaufZksmh4DGXZAB+RjqZfFVYVaZzTH56O/FbhC0azIlj6NoyZy2feQQjEWBEAMVYH9n5o1t/W2Ztd2uRre0/5wGcqeeLDYKHSfSUM8OhcDUQ335N1CJZm2+BXvvDgWcGGmtgQaKqAVTWw5oJes3pnm4rjW6gqYkpQsZzjH+1+orDqiNtdyxGafTePOrKwZP4aFurbYbCHTgZ56CwQusQfKoKR1iq26CeXjt9Z5x2hJR0U4h/bNSvAGBEAMVY9XdyV3o8rfPgglwY699O3grgWNt8kHJpzJa0ISloBjFVF269QF679xb+pY+NNagis+gP+zm0/tEqzbbp0XPzY9ptC/69kAElrjd9kw9CEP0b7bgFKTtTBT5Kw595ktOu6Um8Po8zsPqHvqLLlwCT0tdJ/jIf1veYLqB8zp79LgDEiAGLc9le/+eqftku1JVU729evkMaymxJaYRrblGs2VlkTse0v6AeMhOlgVAiVveEjgk0zqSHwQ3/vZ+SLM28f8ajvA5Z/mOeBr4jTwvhSkM6rP7aqraj8bRFTr7yyaN5MlupQ57ZpN/IsDN9xo9H8jPOx2if+S4GEZgtJBxV19RlVHdvqzbMCjBEBEGOmb6t+L1QRApz45tuqQqdUaAYu3ONJFxzxzb9ps29oNpa0yTdOEB1GDseAODj59Bx9qjbZpIbAn/qBX5Iv3Py2cF/rdNRvmW8U1TkFjF/VIxwY96geO0Hlb+uop4RRvSfSNxiVDf6QcDvEuWyUeHPQh5K8Cdj/1K3EV/8ew2Rfn5mdEWBMCIAYKxPB6o7MWidNvDo02arQZCvu7U/rWNlTeTNvs8k3hsdYHfTPUXelDx2y1YJgS6hCoPlLOy0T5NL0jfJP3vWwPH/Dm+v7sZqXTGre7vsvcXqYIst8ySAnzfJuW5OJ5QvVz7CmZH1HN6YXSP/KVeOnbsc7lf+0bRT542kPwMqyXO4LMCYEQIzNfbf/0zr8+VDmm3p9kIuTPvvmYAnNu/V35qShrBn27Dx/Wnpu7j87ObR279EqNC+7Ezwu2DKeue+2w5MWAqv1gn/aVAKfv/477IZ03j5X9ZE4sWVWDaxiXhghrMI00NWdn2d5t63J/L2d9VW/OPLXpcH6zSb+fbebdxtF3va5/YUiae/R0HKcKApFP0CMDQEQY7PcK2f8+2Dh+uyFCp8OQS428SpJVvGwb6E+JIrWSTi007yI+H3T/oHKTxGj/eoiM5eHC4ItZRJDoF83uAqBeWtuo/qjYmUnTHik/Hxv9hPe1A4fofK3dV33nj8YmG+YA9vMm7xZqayCV//ebt4VyYcFxW3uelD5/llNULJjSr1HgDEhAGJsTBjb56d08X30fLOunzGjkGRpN/GPi3uvdaOAVVjbNxkUovKPXd3qH6jqQSFaLc4N5pYEW84kh8BvTd1Q328vDRevyhgO89G/5tbZ3Z/88jHBlmb+ap9w/f9i8lNpBS9EwNax4etBFhhjJLTvdXHil/h4Pkik6PVuE2BMCIAYGxO+Zmw/vGzyZh0qehL7vdSSeTTiesCSN/36gSCiQ5ecOEik41f1LR5b1jVTpQlCeqIG6PgQWDULN0d1+sl9m0vCJVPALA5fWjki2PKmpuRJ9yYSOh/HCp77+5bu5l7t99J+Pqvm41rC25eOYVD8e6U7ZzksdwswJgRAjI1p9u37IGcndnbvoUlVL6ztK64yKL66p7K+gz7Q2YphIf4cvonYVxWT92rXxUY/JdiyFg/uWTIhcP+khcAv3vw2EwJ/yYTAN9T37YTQ/nO+GQhCU+GgLFcO7j47oCI9AfRw6tlwx/2VhgqeSpt7dffxtr7XmPMvPaFr6qj3TZqFVfo8zAWI8SEAYmzMG+Nt+STOknyh1qGiV6R96UP1T4e11e20LrH51/cHzAeF+L6F8c24MImwGE5WsNiJJjcEvr2eLNpX/NrBTyROEq1N+Fvev/vTg4FgIiz3lheTpoek36ckUwGJpEFOpHkVpPt1BcV0b7s+8OiJx4GriwCIsSkac/WFARtxMIjOtrv9Q58/kVD9k+w82o38VVmoTEcX29HBdVCk2jIBQgjUk9Vk/zu3/gP50Pe+z92L8wOGD3v7bWdJq+Ig4W+yXHfwDwZJ/5RkTkfJJvu24hrmjV6hrWOaq8Ek2+1ymErF84v0BRgTAiDGxryN9X1FLqzO4abAsM23rsF2RB8+Xz0MK4X47X4CQT8qT3xTcl4RrH+uyEAwEaoQqIeTGQKrtYP9usB5BUdLuayrVT6oRE8g8/4z8LfS/sphKh9Jm4JXO5MOo4B9P1F3VqkXP3d9RkOPUj/BeHWbyaAxJgRAjI2tzPnBH7E5t3oPDNO9iK3o+cDm5/Pz4U9EJFkBRGcVQJWu9qE7QqTWDw3mBoKJcf49ewaTGAJ/7Y5D8qt7f8JVb6ot4eeJ3Y9++axgwumOefpU8nuyVaWP+t59ts9Ke/xwtc1fNLFa6JuV3bkIgBgLAiDGxoSzfli7NzTPKlFZK0gyyENn36eTgOh/uSYS7ZrYdN5k3P7V1fkaW93EhsC9NgT66tBQC6t8TDjzDjOwt+JbSWvUb+Ou1rFXoKrmkNHSmP8vO3iV96gYCoFxIABibOpKX3XDzokRmn/TgRzpaOA4abS7MOM8Cbbyp3Ro/s1G+ybVvzAyuD6GKWAm1SSHwKoaaK7Os6zysV3p1tx++cTfcT9J+g02jwv7yKiYpxkQgrEiAGJsfJcZu6qHffOz1T4VBnD4dhW/mkda8QuDOqrjdVhNRIvWSdNvrBza22G5TsXFPdmqEKikPGj+PidqIE8VAv/b//rXnxBMvOabiO3D1+7vF6cwjfMDSujEEo7u6CeowlGtwqLbsCyXaQLGWPAZibGx6/mW2vfXEx0mcNYSJoN2FT1RyTQv0gp3dV8au03F+f+ag0bS51Y0nmwDT9+/Z1H0cP+NL78qk+RrN37Xw3s/89VDgolWjcXIY5tv3B3F9QtMuri09mhVC+2KIWmVMN3HvNsRADEWBECMTfW2Vrg3txD2pJ7yxVUGxY3ytT99ZAtr/mr/BhjXBvYDPsQ1L6tkKpn6WPFVwBHzsmHi/O7P/Oq9v/zRx2XSKF3O3/GbFw4IJpoWlXT7K3V75Y9kDkD3kNbpKN/ud6I4JERLXDBEpUum17+mZGogwBgQADE2oWk2VvFcJVBcFTDp5uxHCiejekMfmmTNpKTiF5qXfZ/BdJ1gO3WM9AUT7WL/A0fLUs/d/vVvys9++pxMnKJ36s5HL+wTTDCdTvuiklU6nGToWhzwIf4IySZ4yfZR2fEqH2gyevJo4OogAGJsqnV4fd+/tEm3UB3Nt6EPoAp9+Qpp9gXs6POXPl/1m9Z5eMTE+qv+B2eHQ31S3MS4P/T5P5MPfPqzMmFmtOqdIwROJvPeM9MOePZ6zCZ1ScJavkqIvdmsAWaNyqpjrWCtefvC2BEAMTY2qMXVOsKcf+Kah/03af/Lv4lqnX03joNFmsFRZ2HRH2dXG7H7zPXn+oKJ83z/ff2iLM80m9R++HN/Jj/57z4vE6YOgXs/9XxfMFFKXfZjnzzVmMjZNWdIDIb1XulKMPX9IntPy2npXivYvyfWD7GaEcaCAIjx0WpJ7DSnLqDFIFi4ZpBsMIfrJxj6AIob+duYE1D8Oeyo4GweQLtPMkXMNJOoTprn3/y+/vRQzpm/QPt355bHElcV+cl/+znza/JCoJpeJgROHDWTjvpt/kz7A7ZGAqc/lUqakbPzu20dVUDzqyzNtX9wgQCIsSAAYmyKQi/ZKVzaEzZLY+UO19U6Lhfnq3rJfiLSCIKuT6FbKSS0woRj631pepsgF/pzM7t2qXPmWuj7wOeWSxBRcWrvn/x3n5u8SqCWPiFwclw+8876vaNZ0Uv5ZuB81K/ridw5WCSeq3pjjP0F8519a4g5B+EPY0MAxPhoeTYEM/FNtnagh58Wxg380IWWVtBLK4R+6pcsFOpGv0Gxb9aFO4ltClZ9wcS4efjqKUkG7yg/qqcS+lbZu7YS+DmZKITAiVFIr1/9tOvy+nemxmJw7mKM3QFV6PPcPeefJAM80t5/Og+MYYgca5ljfAiAGBvz7nbRf37HkGa/GYe1fMWP6FX55M4SP/dt83GZDSQJ82WFJeFU6BcoyejjQuvbBBPh4q3vf1gridOmdHeNknR1hKoKWPULnCiEwIlgvpW61oP0OszH7+Zr+8b+gCPqhWHf9mTS1fFlnBYmPgcVQIwNARBjUxTFs+nIXOWmf3FBTccl3pJwqJP+flonff6y9X61m+alXhe48J2vxfUtlORXoWYFW97FWz9wvFTqWHVbtT9dZcRaW7UP/OY5QiCuvlIn3Uf8tWibbTsvTen6whKPC1vao4TtVu3ribHgragAYowIgBiflWoamGT6FmWbTHzVr/AtfL6iJ5I17Yrkff7CQA+/tJzY43xTchoEfTVQlbo/159jIMgWVoc/0XO6zDvNV7JmsWQgSMZsOPrbvyu3f/2vZaK4ENg/dYHrcwsqCrkr3gvXY2sewHC5tvKfTjaGhuHwWNr8213urkKhflaAMSEAYmyK6eGiDXQ6rtqhG+v41v/FAR8V/1YY+vzFiaB1CHb+P9UIfOJDYgiP+rqezAq2JBP+jlbhr7qt8tbdmm4Pu5TWeqxmww0vvSq//NHfnsgQeN0NBSFwi3n5zPf3yyqgN3KZTqZzSb6nhOuxMZRjlWcIfQolC4bNHobSWxRgTAiAGJuPn58b2OXc7GodypX//ESqvoIXmoB1DH1p1S9OBO0rf8quJKJ1OMYGRGn1Iay/sQsBcCu62P/ZQyb8naxuu1WwXHk4JLyk2UzsnBhJ85m/lvy2ar3gD5/6N/Lmv3lBJopS+wiBW0tPilk32XPjEdUKfimtZQ1pKMwqhNL1bKW8MhBgTAiAGDNdh0Dtq3+un5+fFCut8DVXCMmWftPpyF87RM7vX2k2E0vSjNwr5F7BlvKN/gf2lWVZh790epdaxyRr9V92UcT7yveT0tkhbzHh71c+9jghEK9LoYp7tS4bUzTHeNY1p1+zt0KuKxmqsK+dUrp91K6Dn6MCiLEhAGKsTOlvwa7OYct/oapnf9VfepvhzYe/IqkMhmNda0kMg9JoHk6bgP00M9L/xbfPzQq2hCr89Up9ztwMEz0H/tMw3Zysi5VNtjtilHAV/n6ZEIjXSJ+ZnTEX3AGR5iJtKr08W/MDdk/lrLN9VfaYa/y14+Gk40SEP4wVARBj1RO1mFbvQlXPvyHaVt08ADbuVxt830HReZWvDpIuYPqRw0VyjsJNOTNVyj2CTVet8tHTcs78NdmQ0wxxSec+FfvPh45/IyqF0hw9+RYXAqtm4YlShcAbe2cEm2ZZLoepiJoVwNgzwX8naX8Jib0SwjuVD3hJzPMpUuvWOdzdkgEgGDMCIMaqGA6fitO76NjMWwe1woY1la8SUvXaC1XBar/4Oe/Cngt3/uotXTDQsT+h7x8YBpAoOSbYVNX6vtUqH+bvZCZ8SGbLZK3Rh8qVX5Tfv9n+6z6U/Yd2HQI/OoEhUGT2zs88d0qwKcz1dcjf9teTa6z1e0i7L19yL3xRSbeH9ovsmLgOsErqje7ZirpKDowNARDjtSKLfnSur8b5t8KwPa0Mim/ylVDxidVAd7wW37Qbq4mlDX+j+hSa7TO/TDPwpqnDX6mqD7S+3xY+DpPKnmp+TvqNSWUwTJqR9An0+6nGptu//k15aP7fyqQx/6uHCYEbzzT/9qVj0Fi45lpbK74pON7XblRTfS+d0ihc66p1LjfDYNxUrjwhwBgRADFWJwdzS+adbSH97ixJeKu3uYpf2jwcA5zdyy7rpkN4DCOD3a96W7ImcAiMklzkWh8XbLjn+3M2/CnVV6v3lLdc2cV9YMYJ03Rog7N3y44hmLo9T+BdX/yafODTn5VJQwjceEN1uX6P6Opp0GrFzfZSHfd9U3Hpji+Tarev/TVDpD3Ht+SGJQaAYNwIgBg780b3lG/ODZVACZU5G9OqwSBpM7COfQazyqF/rD6zjgNGRLn+gXZlEL/WsL/AXSCc/ZgJI4INY8Pfq7byN6Kze+dUGn7fNDG6AeR+n9CMrFqFwNb9aqWQiVs3WAiBm2C2+s1eVr5yJ3HKIfGPNumO+3kFMAZEe3bfT7C61awKrsjUggBjRgDE2PW0PpsGNhfa4lJwInaOwDhhdHzzFddUHJoIVbjvl4fzYS8GRL8yiD0mTCgt9bwzRwUbomr2vUZfrgZ89FfbryuwhRvpiOAq2Bfph7K7nzQNBzobnlnfrtYNJgRilJUz7zxcValj/7z4BcX+qip5vlNKY3xwKxz69y/V0a/VHh/nEkxHG9cLwslHhocfF2DMCIAYu5W6H6AshfV8zbtdrxq1myzp5n6pfJUQ0ekI4vpiLUsd+gKKDYe+0hfui3ubTquGEkYMH6YKOH6+2dd8iPZbD7aHRLaoRr8/d1w9F7TboTV9hkqWadBpOcWkRL/bT/77PzIh8PMyaQiBG0Cp4/nI3rRfX7rd7hx/Ty9TlR3TfYmnFcD2izg7fJf8m8vvWhBgzAiAGLuqH6AJf4tplc7P/1eYz/CirvwlK4KIDXLVPIFp86/Uo4j9WsI6r/pJ3i+wGf7C84rMqJ4cF4xNNc/frvLykyK28tdqqlX5h2cmVPzyT0eVVP68bBdfEtQ63y/teO+ujyOmClg1CU8aQuD4LD/+zuM6uV6t5F2jxQ3ZSHsE+st75DH2uOaW5r+D/2N47+L597xlIMCYEQCxUc6GPn62j17sGONDnf/wFhvgGk3GrsqnwwAP2/Qb36LDyGAljT6GjUqglkO/yojgsYiTPOt6nr9kqr7OARqBUqueN5vfxd9Pjw3BT7WP8zdLHaboqAaF/PDnJzME3vHos08yWfTVU637a95HQtcQHa4lVw/svDTbFbx0neDGI9lxzVCZNP/K4+UPykC/5QkBNgABEBvi1eXh6dica5NACHPJqOCwrq/YkNes7mVz+7kBIvUvkdYgEZVvC0NJq5Zlc58q4FVWre3b0/KkTiZ59pU3L6vMpT+T0R15tlPxZ5omlYqzwzSahTNdz+38D2d/V/7ON/92SSYNK4ZcVdNSmPcCtVv5bym+vcGP0+380pKGvTi1S309SvNaW+PLjTtHtd/Hyneb38t5ATYAARAbop4ORmTB9sOzy8IVrornI4CvDob+etIMcirM9afC6ODYFNxaSzg9tpoiLj/n7Km3/hwDQq6Si/0PHC3Lcl6XOpvfT0a0k+mRpcBmoc8GwrJMZoDxd0TyEZpd50wrgI2Hb3jxlUe+dvONd5sHBjJpCIFXxeXfeudhk/MO2+lafHRLpmdW+fWYNg/HonT7S8Yql3eyrx30Jq77y8eGPyJfL28ZPH3/HqZ/wYYgAGLDmDe805I084rO+vGFZuAktIX9lJvjz/fn8vtWQtUwqfzV1cFkoEj6MwRHUXOnGBDyul289QPHTSQ7Wd1udPNrfxKWeTf79XxSViN9Y9BLNiRai4J0aByy+KavPnTs/Hv2DPSw3D+xIfANvSf3fur5vuCKadP0W9T9gW31TeLv2XRDWqcjduPvyX1pTk/ktZuE0y8kSvl3w6/pW+rqn9nK6F9sGAIgNsyu5bof4FJj5O/IvnpxPV/fHKyS2x3H6WrUsK0kFq6J0FcObYhUNiTG9+CZoqdPCV6zi7e+/+FS9FxzTr+RFb5GD/lV+wSOqhZWVcGyo/e9tHYbcV8PikIf9Pd8CDRnmbzmYC19Nb18jhB45ZalN2feFfppBS9GwdgaIa3+fkkdsGst30Tav8/2aVbup3+0/mKrf3LlQbtluOukABuEAIgNM2eagU34mo9rA4sfHODTg25V/nRzfj/7dVupjsBYZb5CVF71s7ezuQJV+hwy+xtvPX5ccEUu9Odm/ua2958rRY6lc+7VvfBGhTrdqJzYv3x3oGru2z4+mRMwayb2LcJKtZrkmuc2N034k/27Bw8N0l2qEGg+fSc7BD52YVawLsPHf+CouRYOdT3mr7y6+4G7PWpwR6wNJlu7p3fxRyS72Hehj5bvVl83FUBjgdG/2EgEQGwoJeXjqhHgqj6Brn+eipW/dBUPlQZB5ad5aUz7Ur+nxoqgSkOj7TNofg8jidPmYpNNf6PPqOD1ev7N7+vfVL5aDfaYrTc0qnrN9XjtRtdRLwzqENecH9vWkllc7M9m/z23T3MwsPIfw2H/+PEqrvrr7i+Zik0r/HlV3yuthkdkElUhUHrn7nzsK3yZWUM16rfU+qRko3PDlVf/7oZ/hOsz/dKR9gO09/2GZvLTyXn8/io7w3l9m3xs+G7/HKcF2EBKgA124vYT50wAmw3VuKyvnoq3dfqWGUKg9o2D7r01H/yhJa8O+tBgm4Cr+QbtpDO6tMvHSXjupctlcfeRwdxAMJKb5uWMudlvPhY+JKsgVw0GSVbp6JZUADsfVjJqupfW/eZt/4ISw0Ld/e2DD6/ZwX7voxcOK9U7JRPKfJ2af+mF5QcGR/ZMXjVzzKrwt0v1TOW6mqA8/fizjb9x3G+hdPKFIg2CbWnDsTuP+Cs7fcyyX3RK+bp8u1RNv3X1T8vgmftv3SPABqICiA1n3v5O+/dZlfSgaQXBrJm3MVhEbPBrjvz1x/iRwtk5lA7v4i5o6uTcM9cW+tynGBQyUjXSt5rjT49c2i0t34kd8NEumyT3RzT/htNp16yr4nBg/0GcPk/XbZ1PJzMs9JH1hL/K+fv3zJujT8iEMuHiMIND2vSZ2ZlpVYTwly/SFq9BuzRbmWxV/pJKz9Z5bKOpV8KXnKyaXS8pJ0dX/kdxTb/m38rwEQE2GAEQG+7nvjg3r+ql4WKVzt+2q4KovBlXOip71Yl0eExnITA048RmYHH7p1PBiK1VuTWF6337vUKfOdWfY2qNhnqwR1k1m8nMqLyWTsJc2HTeaNNNdIS3zl20m56jWYLp2lc1Ky12u/nAP/Htg4fm5Qqcv++2uUkOgXWT8NTyhTs+/ewxQR3+VtTyuWrQR7iURn7zqMQvGirptuB7MiRl5uYzZceHCqDKm45/YfiP5M+SVRK1vvasABuMAIhNUYg+aQOaTipxUr+7Kj/tS7OCpxvVPglVPxUnla5HAncGR981rfMcOkwzs+9Gpc8RAq3n++/rh8Eeq1FpBcVO1ddsru0KaSNOkd9XSppzaxRFfj/vAxiZYs6JW557aE5eg4kPgZWeevjOz3z11E6uBtbhT1YWzCWyr74/shnX9ymVpI+qSDrFkC1Elzpefc3rOXkkKVan9caPlT8inyh/OD6zabJn8Ac2AwEQm+LyijxiwtmSm9xZxUEeOqvuFRJXAEmnfCl01nyb9PfTygc+/wbuK39+FLCE45LnVPGN35xj382qPHdmhzcH/1X/fbPX6OKcH+yhYgmkvXPyqdq5i/8QLRsDO1TH6h0d59Zl0qTrq4LuybIpYezjfvFfE/4+PCevw3YIgVWTcD1K+NHnDssOU4W/0lT+zJvDXbFPXraH+6myLfHaDFuS/ZRqnqX7n0Tyjcc9XoU/P+gjWO5N9pcMTCwCIDZFNSWMeVN+JBndq2PFTpnCRRLiJL7Bhj6DfpUxiSOE7ea4rfC30+2SBEstofG3MHXDdDk6Y58qdm4IrCZ3LobyWfMh1vfbtO8IlYSvVT75WlSY0Dk2qYWRwGucZ1Q1ML024sa6IHzija8z/HnbohJYNQkrObWTqoHVgI+VYmWhdJW/tmzwRuuaTZts25W+cA7tuxqMGiXsz16t9NEMf1T/sJkIgNg0167IyWpiaFfZC5U7u7ybjGrurSt2vgJYH6tUDHdasjkGfRAUv6/ovJIYVhdxlUMd9zXb+z0TAv/1DgqBvsnX/OHOZZ360i54vjLS7hlv92lEsrBbrAJ2HNSRGVV+ntDMm3Wo140daqevVvjzqhBYfWGRCbdTqoFV+JtWvXPmf/iu/JGsIOd0900IhWR/pJKOY/NVQ/xxzf3q8Fe+W1qo/mETEQCxaR6o1wc2lRWtW/31Vv+lbAUwHGd/9pRqVwKT++KPDbPyJ9/ttSSh0o8Qrr/a91fU8ML/9dYHt31n+mqU765S1fP7+UG3tfTPNVTtOk5gZ87VYSoYXyhMK3/2LzgpAUr2PPFU9nyqXVbJpdvtiUz4+8hhGYNn3n2buQb0aZl027wauPL4f3VoSvWeNFdZf9Q++deN8J5g++uFbxqqc6D56A4L6Xx/MVb+wvAnOsOfOfsJqn/YTEqATfZLb5970lyK+/xKH1XeKNx7spLuX3GSaD+li47VO5VNHO22+eqeTkcBx0mkq+dsP1/9WtwcgtV5T75cqhMH6+C6fVRVv2mtTik/sbPn27Y6tqVNXl37hce7ziGulXatvn/NfW1JJlRcVGg/FjvvhpJfH1f4S93x2LPz5tkPyTZhru25p+/77hMy4erBHsXycXNBHBtx2Y46Und9w3DLvKn00XVesrVv6evlwfIfy7nyHR1PKYOXXxzezVyN2ExUALHphqYYmDTb2vfaZNBHmLolqfhJEvD8yiD1bSWN8KezASBFWhXUIQi2w599EaG3d3231EevK8onz22jJuFvuqqf+VOZre5nH3Bdzau+eSu92/H5Ge6O+MTU1TDhUVW95r7+hhv6G7oBFoUK/QkLeXwjwl/lmftuO7wtKoGOyc5zd3zmuQuT3Cy8fOb7Z4dq+UnzP3MsvxxttX/14NYR/kTcfIDuLPb7h8539BXD9LlsZPy63CL3Dx/qDn92zxOEP2y29b0DA2N28u1zZ0zYOmBDnGoFPLHfxbOmXfvtxU8mbVf5EH+MqyT6pt44mjisDFKvKCKSVxTDUnGSrEiS3Q5B82RR9k7sn9Bq4De+8wP7iin9cLUWsuhYIRlZ1VutyiftDKi7zrmK1fZvVgs79lksimv2797gv4vtVgmsVKuIlMu9iWmajFU/fdQNxwgPjbry7HW23ivTd3tYrenXhj6/LvBvl/fIPyt/Ql4wFcDuF60Xn7n/trsF2GRUALEl6KmqCqgu2sKbDlW/rKlX+9G72k3unE3jUh8aqoV+lLBOwl9Y0il29anCpl1NJBkc4k/mp6RxU8aISNpn8JhWwyf/Q//BwzJBLszMzfzVre9/uOjpqloyq3yfPWl8HCaVjzT8pSN207Douk1lo3ZHfsQ2236bY03cc4zqc+XXGravTZ7ajPBXqSuB22BgSKoeJDK1fGES+gdePvPOw0N12VzH+pgkQzTcoDAVmhIS8VJWKv6+Ot0If93XtFIvyA31BM8fHP7j0eGv2nW466AAWwAVQGwZ/9vb5471tDxc3c6Dn4rVPy2xz1+jr597vD4gNvXqPADaTS70VcfbZZlc+PNzC6q4j1VXJU2rZXPpOVdnGBSFnPjBL39oXraoC/25mRvLy0fNiz6mqtU81ujMNCq8hWqccuv9+sDWVR3sWgs43Vet8fhq6v3K+aK49oHdm1yF3fvYs3PmSjou21DVP7BcmTq9lSqCy2d+YNb8wz1uLoHZ9qViL841+vyJDYrpdxEljQtT0o/HtAqdfrnxR3xe31kHv7C02wjVwI+nqxHlwBZAAMSW8tG3zZ0zF+VsKC6JbbYNzcI+9CmJgVBJa5WQEPyU5CFRSxzcUd8qk4AoYRBKqEQqGzZ9g5LvT+innwl9C+0HxMBsPfGDg60TBKuK3/U3XT6q6pU89ExhP+iyf/hZ2HMDYrKTdH3irTeodZ0nPnEcxLHWgJMiv20qVaff9NxDh2WL2M4h0FwNA/Odan6zg2DVz09Ur/oznl1tv/wybQ82SgcPucmak0fTAKndV83RvqbfJL9YHpLPlt8na9IyeOb+W/cIsEUQALGlfKw/19eFPNlTUi/FZgNb1vfOVvl8a6G7kYS79mCOMoa0EB51qPiZaqE/n32rjxNIa0krgc3Kn38tyq3zlFQmzQemnBDpLfyXg7mBbIKq4nd9VfETXVf8xL3uq9Hno7OvoM4/VFVX+bD6syrq3lJxWyvk2R2bwmBfO3jk1zdqwMeV2NYhsFIFQSkWNrKPoO3jZ65jrappmNzyjOvrv+caeasvC+KbhnVrlJPfGnqzSqwOJvclvyqr5t5PDH9IPlH+kLl9vayHXpnew7Qv2EoIgNhy/rlpClal/JIvvhUucYWAp9Jg2BygoRrbk/107NNnw6Dk+4RtSZgT6fwlaVWy8VgRPljq+wvm/vyyTD+xEWHwK/0Pzk5LedRN6TKjsqrpFVTw1tM8u44qYOtDd2Q6lM4wmT6H+9g/vRXDn7ftQ6AzzsEi9fJtxcqhUusDska1r3Gk5M22bqtuXqrJ7EEjLvGugR/VMdXULp8Y/jfyCf3Dq/bza6LpF1sRARBb0j9/29x8ofUhH7LsvICjQ1mcN9CHvfrtWxVd1UElrfBX8c2j6UohYe5ApbLKn20GVnUFsTlApB0IpR51bPZ8wtx/wtxdmJGpxT1Xqe9aFfpUObzXvMbDVbWvFVRFQvhL819TZ3OZWsd8fa0g6P4yREaPFB4VHhvb4wd1/eF+4mqv8DEO3/PYs8fMtfGw7AwLUg4feeZH95yV16iu8skr+8y/lHtUT82agt1s136r9URoXqd+VG68EpPziKw6mbP/WEyuYlPlu9EGv/KH113xSyw8c9+t+wXYYgiA2JJOmSbMoWkKNtWzvm3i9e/6OuuzlzbfhtAj9TQwq/QTtOGt8zgZEeSSUbCqs+oXj5ekAhnv+/2ykLlozjUwgXLRRLOnlPSWrpWpwZ5VKoUX6jkIX91nju+b/4N7zPlmm6Gv/lXq0JdR+QmUk/9PCU2qWrr6RHWGtlS6wxVqhtCRITEcUJdsfn4Swp+399ELh5XqnZKdYh39BPWZ7+8vS1E145qwp2Z6veIu06Q/a/7K+2ueXjWaZOP9UVeoe1nSGsGr7RfFbFLxZvXQ+5y+U86V3yePl/e8luBX9/vTw+n9NP1iKyIAYss6VYWdnlTTPMyMqq61ql3uHT+O8tVu8EYymENsCOya3y8dBJJW/Pz5bbVRZc9Vb6vrDbYTWx4Gkyqgvx/O48KZ2AEpRTuwVkvlLbnXMmN/xSpoHKQi2TJ6vurnX0PrIzJZUaP50dmq+FU7VP3uinTulcZ+I6p5q380jziu81x67o3PPXRCJsydj17YJ6p3Toe+azvDO9TT8veLPxy8q1iU29RfVn+dff9YHuTqLe6n9tfUWlfNKnyIS0Oiv+0vX93Yt3Vbf0vfoH5b31MHvyoAvh5KF3c/ff93LQqwBREAsaWZEHhYFfpUCGhK8oEhWrnAlvQBTCuFaaiSNPh1BEC7FnBYCrRojPJ1zb4SK3hJGJM88PmqoQ+fonXrtbj5CiUOIMnDqK9uNvsaNgempK+1WcEcJQ1wXR+5I7elU7us0Yz7mj/K035/hTrypsGH52VC7f3Uhb7qFefM/1NfdqDvM2Hw3uL/lncUT8t3qm+EyZKbmhW+yI/E7R6MkS7Xlh7jHm2cu+N53d7V9C2f1d9br9zxekNf8joeeOa+204KsEURALHlnXrr3FxP9PE02MRfcaUPaQ0Ekc7m39Y5Gs3FIeA1Qp9/ntBn0H16+Aqgmz0iTluTvIbW6ibu2LTvYnweJe2BKGnwlNAknQY/fz99rBo1G17YKl5P3aXzeD+djGrPF1iHT3+Ql+5nLZmi4/7dgw9PfPVkp4dA73vUs6Y6+IzsV38o31M8JzfJi409upthr1Qz8HUFwCrwfU7fIZ8v75TPyjuuaEDHul4Dgz4wAQiAmAi/sefn5k1wOJQGtzSApYGperfv+UGkuhEWsz58+aCSOpBJDIO+ipgN/Miqgj4wJq8pdEnPKoutil1a8XOrm2hJmp7zgFp3Z1ddVUyRZHob//9wBf+qs+DmR9+uVjIZdfxax7QDXtjebgaWwWWl979l8NBAtol9Zy7MvLrSOyNXNKp1e/seNagDYRUMv1P9Vf3zJvVi6NtnL430iolNu6HnbzbwI1YRbYXbBr1qypbz+lb5M92vf53Xt722/nzrpdTZZ9793az2gS2PAIiJ8S/eevxJ87a+LwtvLm6FCpoeMUl0qALmTcVKNSqBEptlbdjLq3NureAk5KXhz1K+H2DaF9H1P4z9CdMQmw9s6a5k+hDoMprdlgdaX/27wgEanSN9R0zX0lm9k3YQXHdFMX0eWzV8qij0wd3bKPyl7vjMsydFq6OCTm9QL8leGciN8lIdCt9gqoTVtupXreOafl6+vb6Mvi631P+uqp9fExv8rnZlby2m4v7UKy/p2cGRPRO5Rjh2FgIgJkY1MvhapZ80b7P9rsmZ3TJx1TpuKmn2tX0E9YiRu2nzr8QKXTpoI4a/pOrmHvPNv76RtaoAqo5wGJplRUIFQzVGB/sqYNacPOqX7p4Ox7387mXYGnxICxnM31hlhY6uQSKdlb3Wc3XmycZr0fPfKq59YM8mL+02bjtlrsAdhxG/mDAEQEyUT/Xn+kqV50x1rq9afeqqql3hmlhtM2kd1JQky8nlTaiF66uWNh/HAR4izTn+Ro7sTe6nlcX6Md14XNJKX6xk+qbbvD9jI+CqVuUvVAaDEVW4ZnGwPpcPdF1LwIX/M20TXFGobBSwP1FTI+2Nqgam20vRJ2557qE52SHu+MyFA0r3Tu20EcLbFuEPE4gAiIlThcCe0ufqOQKle1qWUF3zQcmFjWwwht9Wx6iyPncy2lfb4mEe9LI+gPWWWBlUohqhLW+i9s83evBHo9lXRlT7lGo1/46SDtgNYS8djLFWM/FapTu3T71TV9WxERyDWFlc0oV6YJJH+r5WDA7ZJgh/mFAEQEykKgTuMpVAkyP6Psz5KqCv/KnGfd8/MFTxkqpbewoV15QbAmGs2vn+es3z+cph2N+HvcZrSQNqGG1cdvRHtNW+ZABII/Tlr787qPnK3hpBLg2K2XFdlFqzedmfc/XoqAdFURzcDiN9X6s6BE71TgmDQyYT4Q8TjACIiXWmmijaVAJVqARKCEZphc5PslyHLJF8ipZ6l3Ti5PhYCITKVggL988l7x/YDIbJecWtSCJJoAyvScI8hdn0ML4/YVcfv2b4G1VxC6t6rB7Auh5fb//B9PjsmHVVDKs1+uQJk2qPbNfBHleKfoETiPCHCUcAxEQzIXCmqPsEyj5pjvKVvD+fJKNzs750Ivk8gekoW2mHvVYzb9KPr95Phabb+pnS4+rXkDZDS6PiJ6s0/UoeBpuDL9rroa7SxNvsDLjKfvXzjAqF6XnSbY19Q5/Bet/ykTc+99AxQWbvo88dNn/MD9MvcOtjtC+2AwIgtoV/2f/gvGlOPBSaZsUFNq2qZKa6V+lQ2RQxrcqfSBYA4wTPSd+9unrommlFYggUyaegkbzamE7s3Hhdrum5EQ4b/QLXa2QItM3OLqGq1Uf6rv/JGsHP/j9WXM5c0oUcedPgI2cFnegXOAn06ZcvlccIf5h0BEBsG/+y/3NzPdVeMSQLWb7S5yuAorJpYkSaffqat3W2rvDI6Whc0266HF0WTNPXJM1QmlQV/c+k+Xdk026z+XXEaGDpPDQe4k8l7rXbBuzGVC+rVA07m5aVLPRo8l035gvcmljhA9sJARDbyr9669yxohw+HJtK8/n+svDVamJN5vDzc/KJGtHs21El1HZamWrxXhXn1rMrdYTni3MJ+m1uJY86cVXHFMnrazYX68aEy2sKFUsb6rqmglmXumJY2hG9/uCufTqnhSlPvvEr/+wBwRWpmoTNtXKcauDmU9VodRP+WNsX2wkBENvOv66miZGhHSGs4yAQG9JWCXDim41j+PPbQvVONaZp6eq757eLfcJY9VNh5HBzvzCC2TdLJ9PGFD63heS6/spel2YTbzaYYx3nW8+8fu5lDoam6nfL4KEFwWvCKOEtQMvAvIMcfPr+79qxo9WxPREAsS2dMyFwqMo5E3UOjW5mlZG/0uBW1HEsGeWbhr6kD2FaRQzHq3yuvnQKmlCdbL42iaGzuJJKX3MghjtHJz/NyxU05XYFv1Z/QdcMbU7/SK+4dm73Nl/VY6MwSniTKHX25RdWjtDfD9sRARDb2rm3PnjMRJ2HQ/OrWn8IzJt7G33yqpM3+vjFEGiXhHPxKByfjgDO1wq2/OsJq5PYbnjh8TUDWVcIHHW/8VjWfdDfWSN8dgdCqn7jwgCRjUOTL3YCAiC2vaoaWPgmYZE8+CWBrB38khU3fOVPRlX/GqN3Q3+/SqwmVvK1gyVvlnbB1M9HmFbytH3+bILmKx7g0RXqfD9DV81L+xmOXOe3o8JYVf1eMFW/7b6W72ajGjh2C3pl+gjz+2G7IwBix/h/+h80H5xyfPVqn2o3A2cjh6Xd5093Hd84lw+dzXO44JX1M9RJGlvnpM4p3TVBs0je0a+jsqfjwBXbjJs+Z+OYRtPvoCyo+m0k1zewqk7dK7gqqPphpyEAYkepqoHXysopc3M2Bj3bZBtGADeaemPQS5dl6wqOeXNxs4m3azRy+hqaE0+ntFv5Y635+fR6RgknTbwqubv6uV1FMl/bd8n8Dz5SyK6T9PXbHIwUvmqo+mHHIQBiR/r9/oOHTeirqoF9X+3L5/dTtqm2esj1x0sreOm6w3nws4Gwkq8A0hH6Ovogyir9/Fbr89cMfldSMWzqfJ6ydIM7xDeJn31V6Qfewrx+m66uBk4Xx5g38DXQMhjq4QNf+NE9TE6OHYcAiB3t/zXNwj2Ro+Yfwoyt8pW6WhrDVvtc8FMSVv3Iq31pc2+sElYJKV1TOMz1J6tX/Wzzq4hIbLK1ffBU3CajQ2Fnk+2ISmB1ztL37wv7xCpg19JvtgopC0OlT9Dcu/XYZuFizvztHRKsqmruLUU/8sql8iQjfLFTEQCx4/1+/32mWXjquIk4h30Yq0fi+qKapNW/jlU6RKSrybjSuZpInPy53u7399kvVt9U3OArfWKrkzqt/BXtsLfeufpGPk+j/2A1urdU8gDLuG19d3zmwgEpi4dpFm4j+AERARBwnjRBUJkgWFRBcLW5/pTkawmHgbn5aOLmUnGi85U90nCYWq35tuuxkYM+vFWmf8nO0XmsDEwYntv93EdOCyYK/QMjgh/QRgAEGqogOG2CoKoGiuiyn6/HK7LmIJGuxySGwLyq2A5dWfNsc31fZ7URusmJGtO0uFpfemw64jcbMWyCnyrmdg/+KcFvwu3kIEjwA0YjAAKreKb/AfPhWZgwqPt2fr60aVi1BnxkI391Y+JnkWxd4FRaoPP3myGtK6x1jfodNViks7Ko3UmVvy1PmN9O3PJV+vhtN3UQVHJIdsaycgvmgn785UvlPMEP6EYABNbhmf4HZ3tSHjLNoQdMWpppriIirnk4HR3sb2f9AJMm4GCNCl5X86xez3QvYWe3BIkeOd1LNf/ZaV3KWYLf9nfnoxf2aVUc226DRapqn7m2T2tVnj1/354FAbAqAiBwhb5sqoImCN5r/vEcyPoHKhnZ7NtcE7iWlvsSetRUML6I12j6Xa3PYPZcraZmWdBKHv+WXDPP6h07TzVqWHq9WVNTPmquhn0ygarQZ347W+rh6VcuySLVPmD9CIDAa3ShPzcjsjI7XZb3mnQ3K1r1bdXP9hPMmn3DaNp26Fs9wKULgqxR6bNPkAe9xvOZwLdgzvXEZSnnmcMPXl0VlOKwVCuLbPW+gloPzO+PV5U+Qh/w2hEAgavkq/0P7CtEz/a03GMinwmEekbcCh7SmnPPytbfLdSa07h0PTaqz5+zZO4uVpW+wlT6WLEDa3FNxLPmQqqWmZuVTearfObfyVN6yjTvHtwzEACvGwEQGJNvVIFwqPtVddBUAe+qmtl0FQq9atSwSYd6lQmbg6SSp21/Qz/3jN/sdxmYWwum+ri4UpRPMWEzXo/+qQsz173BhMCymDUX2F3mEjOVQpmRcTHVPfNFaFGX+llzeS+W08MFAh8wHgRAYANdNM3GKyuv7FNTaqZXqttKPeybENg3FcIZ01Y8Y4LcjBto3M9G/dp/qUvuVz0xs4mPA3PT/CyfLXvF4rTsGlDhw7jVFcJCzPVprlttftZfbqQKb/1qgFRnQLTNttUnjrk+1VJ9/Zb6b6vphkSVA1XK4KUXZUBzLgAAAAAAAAAAAAAAAAAAAAAAAAAAAAAAAAAAAAAAAAAAAAAAAAAAAAAAAAAAAAAAAAAAAAAAAAAAAAAAAAAAAAAAAAAAAAAAAAAAAAAAAAAAAAAAAAAAAAAAAAAAAAAAAAAAAAAAAAAAAAAAAAAAAAAAAAAAAAAAAAAAAAAAAAAAAAAAAAAAAAAAAAAAAAAAAAAAAAAAAAAAAAAAAAAAAAAAAAAAAAAAAAAAAAAAAAAAAAAAAAAAAAAAAAAAAAAAAAAAAAAAAAAAAAAAAAAAAAAAAAAAAAAAAAAAAAAAAAAAAAAAAAAAAAAAAAAAAAAAAAAAAAAAAAAAAAAAAAAAAAAAAAAAAAAAAAAAAAAAAAAAAAAAAAAAAAAAAAAAAAAAAAAAAAAAAAAAAAAAAAAAAAAAAAAAAAAAAAAAAAAAAAAAAAAAAAAAAAAAAAAAAAAAAAAAAAAAAAAAAAAAAAAAAAAAAAAAAAAAAAAAAAAAAAAAAAAAAAAAAAAAAAAAAAAAAAAAAAAAAAAAAAAAAAAAAAAAAAAAAAAAAAAAAAAAAAAAAAAAAAAAAAAAAAAAAAAAAAAAAAAAAAAAAAAAAAAAAAAAAAAAAAAAAAAAAAAAAAAAAAAAAAAAAAAAAAAAAAAAAAAAAAAAAAAAAAAAAAAAAAAAAAAAAAAAAAAAAAAAAAAAAAAAAAAAAAAAAAAAAAAAAAAAAAAAAAAAAAAAAAAAAAAAAAAAAAAAAAAAAAAAAAAAAAAAAAAAAAAAAAAAAAAAAAAAAAAAAAAAAAAAAAAAAAAAAAAAAAAAAAAAAAAAAAAAAAAAAAAAAAAAAAAAAAAAAAAAAAAAAAAAAAAAAAAAAAAAAAAAAAAAAAAAAAAAAAAAAAAAAAAAAAAAAAAAAAAAAAAAAAAAAAAAAAAAAAAAAAAAAAAAAAAAAAAAAAAAAAAAAAAAAAAAAAAAAAAAAAAAAAAAAAAAAAAAAAAAAAAAAAAAAAAAAAAAAAAAAAAAAAAAAAAAAAAAAAAAAAAAAAAAAAAAAAAAAAAAAAAAAAAAAAAAAAAAAAAAAAAAAAAAAAAAAAAAAAAAAAAAAAAAAAAAAAAAAAAAAAAAAAAAAAAAAAAAAAAAAAAAAAAAAAAAAAAAAAAAAAAAAAAAAAAAAAAAAAAAAAAAAAAAAAAAAAAAAAAAAAAAAAAAAAAAAAAAwGT7/wHuy56XxbR/lAAAAABJRU5ErkJggg==;aspect=fixed;" parent="1" vertex="1">
          <mxGeometry x="440" y="150" width="41" height="41" as="geometry" />
        </mxCell>
        <mxCell id="85rn0K34BXD19M59qSJw-15" value="" style="edgeStyle=orthogonalEdgeStyle;rounded=0;orthogonalLoop=1;jettySize=auto;html=1;entryX=0.5;entryY=0;entryDx=0;entryDy=0;" edge="1" parent="1" target="3ZfG_3-aHI2Txs_DAWEP-525">
          <mxGeometry relative="1" as="geometry">
            <mxPoint x="609.95" y="249.99999999999994" as="sourcePoint" />
            <mxPoint x="609.95" y="265" as="targetPoint" />
            <Array as="points">
              <mxPoint x="610" y="270" />
            </Array>
          </mxGeometry>
        </mxCell>
        <mxCell id="bxDrusCjxmz3yem5wkOt-5" value="" style="shape=mxgraph.gcp2.doubleRect;strokeColor=#dddddd;shadow=1;strokeWidth=1;rounded=1;absoluteArcSize=1;arcSize=2;" parent="1" vertex="1">
          <mxGeometry x="516.25" y="196" width="187.5" height="68" as="geometry" />
        </mxCell>
        <mxCell id="bxDrusCjxmz3yem5wkOt-6" value="&lt;font color=&quot;#000000&quot;&gt;makeTransaction&lt;/font&gt;&lt;br&gt;Canister" style="editableCssRules=.*;html=1;fontColor=#999999;shape=image;verticalLabelPosition=middle;verticalAlign=middle;labelPosition=right;align=left;spacingLeft=20;part=1;points=[];imageAspect=0;image=data:image/svg+xml,PHN2ZyB4bWxucz0iaHR0cDovL3d3dy53My5vcmcvMjAwMC9zdmciIHhtbG5zOnY9Imh0dHBzOi8vdmVjdGEuaW8vbmFubyIgd2lkdGg9IjIwIiBoZWlnaHQ9IjIwIiB2aWV3Qm94PSIwIDAgMjAgMjAiPiYjeGE7CTxzdHlsZSB0eXBlPSJ0ZXh0L2NzcyI+JiN4YTsJLnN0MHtmaWxsOiM0Mjg1ZjQ7fSYjeGE7CS5zdDF7ZmlsbDojNjY5ZGY2O30mI3hhOwkuc3Qye2ZpbGw6I2FlY2JmYTt9JiN4YTsJPC9zdHlsZT4mI3hhOwk8cGF0aCBjbGFzcz0ic3QyIiBkPSJNNyA3aDZ2Nkg3eiIvPiYjeGE7CTxwYXRoIGNsYXNzPSJzdDEiIGQ9Ik05IDBoMnY0SDl6TTUgMGgydjRINXptOCAwaDJ2NGgtMnoiLz4mI3hhOwk8cGF0aCBjbGFzcz0ic3QwIiBkPSJNOSAxNmgydjRIOXptLTQgMGgydjRINXptOCAwaDJ2NGgtMnptMy01VjloNHYyem0wIDR2LTJoNHYyem0wLThWNWg0djJ6Ii8+JiN4YTsJPHBhdGggY2xhc3M9InN0MSIgZD0iTTAgMTFWOWg0djJ6bTAgNHYtMmg0djJ6bTAtOFY1aDR2MnoiLz4mI3hhOwk8cGF0aCBjbGFzcz0ic3QyIiBkPSJNMyAzdjE0aDE0VjN6bTEyIDEySDVWNWgxMHoiLz4mI3hhOwk8cGF0aCBjbGFzcz0ic3QxIiBkPSJNMTAgMTBsLTMgM2g2eiIvPiYjeGE7CTxwYXRoIGNsYXNzPSJzdDAiIGQ9Ik0xMyA3bC0zIDMgMyAzeiIvPiYjeGE7PC9zdmc+;" parent="bxDrusCjxmz3yem5wkOt-5" vertex="1">
          <mxGeometry width="30" height="30" relative="1" as="geometry">
            <mxPoint x="15" y="15" as="offset" />
          </mxGeometry>
        </mxCell>
        <mxCell id="bxDrusCjxmz3yem5wkOt-7" value="" style="shape=mxgraph.gcp2.doubleRect;strokeColor=#dddddd;shadow=1;strokeWidth=1;rounded=1;absoluteArcSize=1;arcSize=2;" parent="1" vertex="1">
          <mxGeometry x="516.25" y="460" width="187.5" height="68" as="geometry" />
        </mxCell>
        <mxCell id="bxDrusCjxmz3yem5wkOt-8" value="&lt;font color=&quot;#000000&quot;&gt;closeWebhook&lt;/font&gt;&lt;br&gt;Canister" style="editableCssRules=.*;html=1;fontColor=#999999;shape=image;verticalLabelPosition=middle;verticalAlign=middle;labelPosition=right;align=left;spacingLeft=20;part=1;points=[];imageAspect=0;image=data:image/svg+xml,PHN2ZyB4bWxucz0iaHR0cDovL3d3dy53My5vcmcvMjAwMC9zdmciIHhtbG5zOnY9Imh0dHBzOi8vdmVjdGEuaW8vbmFubyIgd2lkdGg9IjIwIiBoZWlnaHQ9IjIwIiB2aWV3Qm94PSIwIDAgMjAgMjAiPiYjeGE7CTxzdHlsZSB0eXBlPSJ0ZXh0L2NzcyI+JiN4YTsJLnN0MHtmaWxsOiM0Mjg1ZjQ7fSYjeGE7CS5zdDF7ZmlsbDojNjY5ZGY2O30mI3hhOwkuc3Qye2ZpbGw6I2FlY2JmYTt9JiN4YTsJPC9zdHlsZT4mI3hhOwk8cGF0aCBjbGFzcz0ic3QyIiBkPSJNNyA3aDZ2Nkg3eiIvPiYjeGE7CTxwYXRoIGNsYXNzPSJzdDEiIGQ9Ik05IDBoMnY0SDl6TTUgMGgydjRINXptOCAwaDJ2NGgtMnoiLz4mI3hhOwk8cGF0aCBjbGFzcz0ic3QwIiBkPSJNOSAxNmgydjRIOXptLTQgMGgydjRINXptOCAwaDJ2NGgtMnptMy01VjloNHYyem0wIDR2LTJoNHYyem0wLThWNWg0djJ6Ii8+JiN4YTsJPHBhdGggY2xhc3M9InN0MSIgZD0iTTAgMTFWOWg0djJ6bTAgNHYtMmg0djJ6bTAtOFY1aDR2MnoiLz4mI3hhOwk8cGF0aCBjbGFzcz0ic3QyIiBkPSJNMyAzdjE0aDE0VjN6bTEyIDEySDVWNWgxMHoiLz4mI3hhOwk8cGF0aCBjbGFzcz0ic3QxIiBkPSJNMTAgMTBsLTMgM2g2eiIvPiYjeGE7CTxwYXRoIGNsYXNzPSJzdDAiIGQ9Ik0xMyA3bC0zIDMgMyAzeiIvPiYjeGE7PC9zdmc+;" parent="bxDrusCjxmz3yem5wkOt-7" vertex="1">
          <mxGeometry width="30" height="30" relative="1" as="geometry">
            <mxPoint x="15" y="15" as="offset" />
          </mxGeometry>
        </mxCell>
        <mxCell id="85rn0K34BXD19M59qSJw-17" value="" style="edgeStyle=orthogonalEdgeStyle;rounded=0;orthogonalLoop=1;jettySize=auto;html=1;entryX=0.501;entryY=0.008;entryDx=0;entryDy=0;entryPerimeter=0;" edge="1" parent="1" source="bxDrusCjxmz3yem5wkOt-9" target="bxDrusCjxmz3yem5wkOt-7">
          <mxGeometry relative="1" as="geometry" />
        </mxCell>
        <mxCell id="bxDrusCjxmz3yem5wkOt-9" value="" style="shape=mxgraph.gcp2.doubleRect;strokeColor=#dddddd;shadow=1;strokeWidth=1;rounded=1;absoluteArcSize=1;arcSize=2;" parent="1" vertex="1">
          <mxGeometry x="516.25" y="372" width="187.5" height="68" as="geometry" />
        </mxCell>
        <mxCell id="bxDrusCjxmz3yem5wkOt-10" value="&lt;font color=&quot;#000000&quot;&gt;sendPOSSignal&lt;/font&gt;&lt;br&gt;Canister" style="editableCssRules=.*;html=1;fontColor=#999999;shape=image;verticalLabelPosition=middle;verticalAlign=middle;labelPosition=right;align=left;spacingLeft=20;part=1;points=[];imageAspect=0;image=data:image/svg+xml,PHN2ZyB4bWxucz0iaHR0cDovL3d3dy53My5vcmcvMjAwMC9zdmciIHhtbG5zOnY9Imh0dHBzOi8vdmVjdGEuaW8vbmFubyIgd2lkdGg9IjIwIiBoZWlnaHQ9IjIwIiB2aWV3Qm94PSIwIDAgMjAgMjAiPiYjeGE7CTxzdHlsZSB0eXBlPSJ0ZXh0L2NzcyI+JiN4YTsJLnN0MHtmaWxsOiM0Mjg1ZjQ7fSYjeGE7CS5zdDF7ZmlsbDojNjY5ZGY2O30mI3hhOwkuc3Qye2ZpbGw6I2FlY2JmYTt9JiN4YTsJPC9zdHlsZT4mI3hhOwk8cGF0aCBjbGFzcz0ic3QyIiBkPSJNNyA3aDZ2Nkg3eiIvPiYjeGE7CTxwYXRoIGNsYXNzPSJzdDEiIGQ9Ik05IDBoMnY0SDl6TTUgMGgydjRINXptOCAwaDJ2NGgtMnoiLz4mI3hhOwk8cGF0aCBjbGFzcz0ic3QwIiBkPSJNOSAxNmgydjRIOXptLTQgMGgydjRINXptOCAwaDJ2NGgtMnptMy01VjloNHYyem0wIDR2LTJoNHYyem0wLThWNWg0djJ6Ii8+JiN4YTsJPHBhdGggY2xhc3M9InN0MSIgZD0iTTAgMTFWOWg0djJ6bTAgNHYtMmg0djJ6bTAtOFY1aDR2MnoiLz4mI3hhOwk8cGF0aCBjbGFzcz0ic3QyIiBkPSJNMyAzdjE0aDE0VjN6bTEyIDEySDVWNWgxMHoiLz4mI3hhOwk8cGF0aCBjbGFzcz0ic3QxIiBkPSJNMTAgMTBsLTMgM2g2eiIvPiYjeGE7CTxwYXRoIGNsYXNzPSJzdDAiIGQ9Ik0xMyA3bC0zIDMgMyAzeiIvPiYjeGE7PC9zdmc+;" parent="bxDrusCjxmz3yem5wkOt-9" vertex="1">
          <mxGeometry width="30" height="30" relative="1" as="geometry">
            <mxPoint x="15" y="15" as="offset" />
          </mxGeometry>
        </mxCell>
        <mxCell id="bxDrusCjxmz3yem5wkOt-25" value="Vending Machine" style="text;html=1;align=center;verticalAlign=middle;resizable=0;points=[];autosize=1;strokeColor=none;fillColor=none;" parent="1" vertex="1">
          <mxGeometry x="855" y="417" width="120" height="30" as="geometry" />
        </mxCell>
        <mxCell id="85rn0K34BXD19M59qSJw-3" style="edgeStyle=orthogonalEdgeStyle;rounded=0;html=1;labelBackgroundColor=none;startFill=1;startSize=4;endArrow=blockThin;endFill=1;endSize=4;jettySize=auto;orthogonalLoop=1;strokeColor=#4284F3;strokeWidth=2;fontSize=12;fontColor=#000000;align=center;dashed=0;entryX=0;entryY=0.5;entryDx=0;entryDy=0;" edge="1" parent="1" target="3ZfG_3-aHI2Txs_DAWEP-525">
          <mxGeometry relative="1" as="geometry">
            <mxPoint x="516.25" y="312.72" as="targetPoint" />
            <mxPoint x="480" y="313" as="sourcePoint" />
          </mxGeometry>
        </mxCell>
        <mxCell id="85rn0K34BXD19M59qSJw-4" style="edgeStyle=orthogonalEdgeStyle;rounded=0;html=1;labelBackgroundColor=none;startFill=1;startSize=4;endArrow=blockThin;endFill=1;endSize=4;jettySize=auto;orthogonalLoop=1;strokeColor=#4284F3;strokeWidth=2;fontSize=12;fontColor=#000000;align=center;dashed=0;entryX=0;entryY=0.5;entryDx=0;entryDy=0;" edge="1" parent="1" target="bxDrusCjxmz3yem5wkOt-9">
          <mxGeometry relative="1" as="geometry">
            <mxPoint x="516.25" y="405.77" as="targetPoint" />
            <mxPoint x="480.25" y="405.77" as="sourcePoint" />
          </mxGeometry>
        </mxCell>
        <mxCell id="85rn0K34BXD19M59qSJw-5" style="edgeStyle=orthogonalEdgeStyle;rounded=0;html=1;labelBackgroundColor=none;startFill=1;startSize=4;endArrow=blockThin;endFill=1;endSize=4;jettySize=auto;orthogonalLoop=1;strokeColor=#4284F3;strokeWidth=2;fontSize=12;fontColor=#000000;align=center;dashed=0;entryX=-0.005;entryY=0.441;entryDx=0;entryDy=0;entryPerimeter=0;" edge="1" parent="1" target="bxDrusCjxmz3yem5wkOt-7">
          <mxGeometry relative="1" as="geometry">
            <mxPoint x="516.2" y="490.1200000000001" as="targetPoint" />
            <mxPoint x="480.45" y="490" as="sourcePoint" />
          </mxGeometry>
        </mxCell>
        <mxCell id="85rn0K34BXD19M59qSJw-13" style="edgeStyle=orthogonalEdgeStyle;rounded=0;html=1;labelBackgroundColor=none;startFill=1;startSize=4;endArrow=none;endFill=0;endSize=4;jettySize=auto;orthogonalLoop=1;strokeColor=#4284F3;strokeWidth=2;fontSize=12;fontColor=#000000;align=center;dashed=0;" edge="1" parent="1">
          <mxGeometry relative="1" as="geometry">
            <mxPoint x="480" y="490" as="targetPoint" />
            <mxPoint x="480" y="229.78494623655914" as="sourcePoint" />
          </mxGeometry>
        </mxCell>
        <mxCell id="85rn0K34BXD19M59qSJw-14" style="edgeStyle=orthogonalEdgeStyle;rounded=0;html=1;labelBackgroundColor=none;startFill=1;startSize=4;endArrow=blockThin;endFill=1;endSize=4;jettySize=auto;orthogonalLoop=1;strokeColor=#4284F3;strokeWidth=2;fontSize=12;fontColor=#000000;align=center;dashed=0;exitX=0;exitY=0.5;exitDx=0;exitDy=0;entryX=0.998;entryY=0.641;entryDx=0;entryDy=0;entryPerimeter=0;" edge="1" parent="1" source="3ZfG_3-aHI2Txs_DAWEP-447" target="bxDrusCjxmz3yem5wkOt-5">
          <mxGeometry relative="1" as="geometry">
            <mxPoint x="710" y="230" as="targetPoint" />
            <mxPoint x="770" y="160" as="sourcePoint" />
            <Array as="points">
              <mxPoint x="820" y="295" />
              <mxPoint x="820" y="240" />
              <mxPoint x="703" y="240" />
            </Array>
          </mxGeometry>
        </mxCell>
        <mxCell id="85rn0K34BXD19M59qSJw-16" style="edgeStyle=orthogonalEdgeStyle;rounded=0;html=1;labelBackgroundColor=none;startFill=1;startSize=4;endArrow=blockThin;endFill=1;endSize=4;jettySize=auto;orthogonalLoop=1;strokeColor=#4284F3;strokeWidth=2;fontSize=12;fontColor=#000000;align=center;dashed=0;exitX=1;exitY=0.5;exitDx=0;exitDy=0;entryX=1;entryY=0.5;entryDx=0;entryDy=0;" edge="1" parent="1" source="bxDrusCjxmz3yem5wkOt-9" target="3ZfG_3-aHI2Txs_DAWEP-447">
          <mxGeometry relative="1" as="geometry">
            <mxPoint x="730" y="427" as="targetPoint" />
            <mxPoint x="907" y="482" as="sourcePoint" />
            <Array as="points">
              <mxPoint x="820" y="406" />
              <mxPoint x="820" y="494" />
              <mxPoint x="1000" y="494" />
              <mxPoint x="1000" y="295" />
            </Array>
          </mxGeometry>
        </mxCell>
        <mxCell id="85rn0K34BXD19M59qSJw-19" value="3" style="shape=ellipse;fillColor=#ffffff;strokeColor=#BDBDBD;strokeWidth=2;shadow=0;gradientColor=none;fontColor=#757575;align=center;html=1;fontStyle=1;spacingTop=-1;movable=1;resizable=1;rotatable=1;deletable=1;editable=1;locked=0;connectable=1;" vertex="1" parent="1">
          <mxGeometry x="780" y="230" width="20" height="20" as="geometry" />
        </mxCell>
        <mxCell id="85rn0K34BXD19M59qSJw-23" value="4" style="shape=ellipse;fillColor=#ffffff;strokeColor=#BDBDBD;strokeWidth=2;shadow=0;gradientColor=none;fontColor=#757575;align=center;html=1;fontStyle=1;spacingTop=-1;movable=1;resizable=1;rotatable=1;deletable=1;editable=1;locked=0;connectable=1;" vertex="1" parent="1">
          <mxGeometry x="583" y="260" width="20" height="20" as="geometry" />
        </mxCell>
        <mxCell id="85rn0K34BXD19M59qSJw-26" value="5" style="shape=ellipse;fillColor=#ffffff;strokeColor=#BDBDBD;strokeWidth=2;shadow=0;gradientColor=none;fontColor=#757575;align=center;html=1;fontStyle=1;spacingTop=-1;movable=1;resizable=1;rotatable=1;deletable=1;editable=1;locked=0;connectable=1;" vertex="1" parent="1">
          <mxGeometry x="780" y="394" width="20" height="20" as="geometry" />
        </mxCell>
        <mxCell id="85rn0K34BXD19M59qSJw-28" value="6" style="shape=ellipse;fillColor=#ffffff;strokeColor=#BDBDBD;strokeWidth=2;shadow=0;gradientColor=none;fontColor=#757575;align=center;html=1;fontStyle=1;spacingTop=-1;movable=1;resizable=1;rotatable=1;deletable=1;editable=1;locked=0;connectable=1;" vertex="1" parent="1">
          <mxGeometry x="583" y="440" width="20" height="20" as="geometry" />
        </mxCell>
        <mxCell id="85rn0K34BXD19M59qSJw-30" style="edgeStyle=orthogonalEdgeStyle;rounded=0;html=1;labelBackgroundColor=none;startFill=1;startSize=4;endArrow=blockThin;endFill=1;endSize=4;jettySize=auto;orthogonalLoop=1;strokeColor=#B3B3B3;strokeWidth=2;fontSize=12;fontColor=#000000;align=center;dashed=1;exitX=0.001;exitY=0.722;exitDx=0;exitDy=0;entryX=1;entryY=0.459;entryDx=0;entryDy=0;entryPerimeter=0;exitPerimeter=0;startArrow=blockThin;" edge="1" parent="1" source="3ZfG_3-aHI2Txs_DAWEP-447" target="3ZfG_3-aHI2Txs_DAWEP-525">
          <mxGeometry relative="1" as="geometry">
            <mxPoint x="703.75" y="314.5" as="targetPoint" />
            <mxPoint x="880.75" y="368.5" as="sourcePoint" />
            <Array as="points">
              <mxPoint x="704" y="310" />
            </Array>
          </mxGeometry>
        </mxCell>
      </root>
    </mxGraphModel>
  </diagram>
</mxfile>
